<svg width="80" height="80" viewBox="0 0 80 80" fill="none" xmlns="http://www.w3.org/2000/svg">
<path fill-rule="evenodd" clip-rule="evenodd" d="M6.59885 53.1484C8.40648 52.8152 10.273 53.1996 11.802 54.2197V53.2021H15.1145V66.3896H11.802V65.5713L11.5324 65.7422C10.7113 66.2412 9.78761 66.549 8.83127 66.6426C7.40953 66.8556 5.95697 66.6024 4.69065 65.9219C3.42594 65.268 2.39741 64.2345 1.74924 62.9668C1.10121 61.6992 0.866032 60.2606 1.07639 58.8525C1.28681 57.4445 1.93176 56.1371 2.9221 55.1143C3.91245 54.0914 5.19828 53.4042 6.59885 53.1484ZM7.99436 56.0293C6.99589 56.0651 6.04752 56.4771 5.34104 57.1836C4.63456 57.8901 4.22252 58.8384 4.18674 59.8369C4.20745 60.8403 4.6148 61.7972 5.32444 62.5068C6.03408 63.2164 6.991 63.6238 7.99436 63.6445C8.99396 63.6517 9.95561 63.2626 10.6692 62.5625C11.3826 61.8625 11.79 60.9086 11.802 59.9092V59.8369C11.7949 58.8293 11.3915 57.8649 10.6789 57.1523C9.96639 56.4398 9.00202 56.0364 7.99436 56.0293Z" fill="black"/>
<path fill-rule="evenodd" clip-rule="evenodd" d="M30.3821 66.3906H27.1047V65.5713L26.8801 65.6973C25.6864 66.4206 24.3034 66.7702 22.9094 66.7012C21.5154 66.6322 20.1743 66.1472 19.0578 65.3096C18.2961 64.7732 17.6599 64.078 17.1936 63.2715C16.7273 62.4648 16.4412 61.5656 16.3567 60.6377C16.2244 59.7217 16.2849 58.7877 16.5344 57.8965C16.784 57.0053 17.2172 56.176 17.8059 55.4619C18.3673 54.7555 19.0695 54.1734 19.8674 53.752C20.6652 53.3306 21.5418 53.0792 22.4416 53.0137C24.042 52.8306 25.6562 53.2191 26.9973 54.1113H27.1047V48.6475H30.4172L30.3821 66.3906ZM23.2883 56.0205C22.2744 56.0181 21.3006 56.4173 20.5803 57.1309C19.8601 57.8444 19.4517 58.8143 19.4446 59.8281C19.4422 60.3245 19.538 60.8168 19.7258 61.2764C19.9136 61.7358 20.19 62.1542 20.5393 62.5068C20.8886 62.8595 21.3042 63.1399 21.7619 63.332C22.2197 63.5242 22.7108 63.6246 23.2073 63.627C24.2263 63.6295 25.2059 63.2316 25.9348 62.5195C26.6635 61.8076 27.0834 60.8379 27.1047 59.8193C27.0666 58.8209 26.6517 57.8738 25.9436 57.1689C25.2354 56.4642 24.2868 56.0539 23.2883 56.0205Z" fill="black"/>
<path d="M72.9709 53.0137C74.0976 53.0246 75.2091 53.2792 76.2278 53.7607C76.8571 54.0765 77.3971 54.5453 77.7981 55.124C78.1991 55.7028 78.4481 56.3731 78.5227 57.0732C78.4867 57.1452 78.4873 57.2082 78.4963 57.334H75.2014C75.2122 57.1636 75.1904 56.9925 75.1379 56.8301C75.0869 56.5438 74.9503 56.2795 74.7463 56.0723C74.5424 55.8652 74.2806 55.7244 73.9953 55.6689C73.2192 55.4661 72.4033 55.4661 71.6272 55.6689C71.4509 55.709 71.2861 55.7894 71.1457 55.9033C71.0053 56.0172 70.8932 56.1619 70.8176 56.3262C70.759 56.4094 70.7168 56.5033 70.6946 56.6025C70.6723 56.7019 70.6702 56.805 70.6877 56.9053C70.7053 57.0056 70.7425 57.1016 70.7971 57.1875C70.8517 57.2733 70.9227 57.3479 71.0061 57.4062L71.1145 57.4697C71.4431 57.6695 71.8022 57.815 72.177 57.9014C73.0771 58.0904 73.9771 58.2347 74.8772 58.3877C75.8189 58.5066 76.7213 58.8386 77.5149 59.3594C78.0554 59.7117 78.4829 60.2127 78.7463 60.8018C79.0097 61.3908 79.098 62.0438 79.0002 62.6816C78.9537 63.4657 78.6707 64.2177 78.1887 64.8379C77.7067 65.4581 77.0474 65.9176 76.299 66.1562C74.3217 66.8905 72.1464 66.8906 70.1692 66.1562C69.4274 65.9208 68.7614 65.4923 68.2395 64.915C67.7176 64.3377 67.3582 63.6318 67.1985 62.8701C67.1445 62.6272 67.1175 62.3753 67.0725 62.1055H70.5657C70.5535 62.2648 70.5775 62.4249 70.6369 62.5732C70.6695 62.8165 70.7548 63.0501 70.8869 63.2568C71.0191 63.4636 71.1955 63.6388 71.4026 63.7705C71.8935 64.0935 72.4637 64.2752 73.051 64.2959C73.6384 64.3165 74.2211 64.1755 74.7336 63.8877C74.9778 63.7398 75.1862 63.54 75.3449 63.3027C75.4911 63.1151 75.5572 62.8768 75.5285 62.6406C75.4998 62.4046 75.3793 62.1892 75.1926 62.042L75.093 61.9707C74.8156 61.8004 74.511 61.6783 74.1926 61.6104C73.3736 61.4394 72.5457 61.3401 71.7268 61.1602C71.005 61.0099 70.2923 60.8175 69.593 60.584C69.0988 60.4126 68.6551 60.1202 68.303 59.7334C67.9508 59.3466 67.7008 58.8772 67.5764 58.3691C67.307 57.4653 67.3735 56.4943 67.7639 55.6357C68.1544 54.777 68.8429 54.0883 69.7014 53.6973C70.729 53.2357 71.8445 53.0028 72.9709 53.0137Z" fill="black"/>
<path fill-rule="evenodd" clip-rule="evenodd" d="M58.0168 53.0674C59.6044 52.9136 61.1961 53.3182 62.5178 54.2109V53.1934H65.677L65.7131 66.3906H62.5627V65.5713C62.1943 65.7732 61.8158 65.9564 61.4289 66.1201C60.2594 66.6268 58.9725 66.8012 57.7102 66.625C56.4478 66.4487 55.2578 65.9287 54.2717 65.1211C53.5654 64.5629 52.9827 63.864 52.5598 63.0693C52.1368 62.2746 51.8831 61.4006 51.8147 60.5029C51.7137 59.5661 51.8134 58.6181 52.1067 57.7227C52.4 56.8273 52.8802 56.0041 53.5158 55.3086C54.0802 54.6557 54.7687 54.1211 55.5412 53.7363C56.3139 53.3516 57.1556 53.1243 58.0168 53.0674ZM58.719 56.0293C57.7135 56.0315 56.7493 56.4278 56.0324 57.1328C55.3156 57.8379 54.9029 58.7955 54.884 59.8008C54.8696 60.8042 55.2539 61.7726 55.9524 62.4932C56.6509 63.2137 57.6072 63.6278 58.6106 63.6445H58.6565C59.6682 63.6399 60.6383 63.2407 61.3596 62.5312C62.081 61.8216 62.4967 60.8575 62.5178 59.8457C62.4864 58.8466 62.0764 57.897 61.3713 57.1885C60.6661 56.4799 59.7181 56.0653 58.719 56.0293Z" fill="black"/>
<path fill-rule="evenodd" clip-rule="evenodd" d="M50.6174 66.3906H47.3225V65.5713H47.2414C46.1518 66.3006 44.8616 66.6714 43.551 66.6328C42.001 66.6524 40.4886 66.1544 39.2541 65.2168C38.0196 64.2791 37.1335 62.9556 36.7365 61.457C36.3407 59.9021 36.5132 58.2565 37.2229 56.8174C37.9326 55.3784 39.1331 54.2399 40.6076 53.6074C41.4836 53.2068 42.4327 52.9903 43.3957 52.9717C44.3588 52.9531 45.3155 53.1335 46.2063 53.5C46.5918 53.7019 46.9647 53.9271 47.3225 54.1748V48.6387H50.6174V66.3906ZM43.4973 56.0742C42.5086 56.1159 41.5707 56.5256 40.8694 57.2236C40.168 57.9216 39.7536 58.8573 39.7073 59.8457C39.7346 60.8436 40.1442 61.7929 40.8508 62.498C41.5576 63.2032 42.508 63.6107 43.5061 63.6357C44.5033 63.6406 45.4623 63.2521 46.175 62.5547C46.8878 61.8571 47.2971 60.9063 47.3137 59.9092C47.3137 59.9092 47.3137 59.9089 47.3137 59.8643C47.2996 58.859 46.8923 57.8989 46.1789 57.1904C45.4655 56.482 44.5027 56.0812 43.4973 56.0742Z" fill="black"/>
<path d="M35.2063 66.2734H31.9123V52.9688H35.2063V66.2734Z" fill="black"/>
<path fill-rule="evenodd" clip-rule="evenodd" d="M77.0823 49.3682C77.1842 49.3808 77.2799 49.4248 77.3557 49.4941C77.4315 49.5635 77.4844 49.6544 77.5061 49.7549C77.5369 49.8529 77.5366 49.9585 77.5061 50.0566C77.4755 50.1546 77.4152 50.2406 77.3342 50.3037L77.2082 50.4033L77.5149 51.1055C77.236 51.1774 77.2175 51.1683 77.1096 50.9346L76.9836 50.6465C76.8666 50.3764 76.8663 50.3763 76.5422 50.4033V51.168H76.299V49.3682C76.5598 49.3536 76.8215 49.3536 77.0823 49.3682ZM76.5422 50.1689H76.9201C77.1811 50.1689 77.2082 50.169 77.2082 49.8633C77.2148 49.8332 77.2156 49.8018 77.2102 49.7715C77.2047 49.7411 77.1937 49.7115 77.177 49.6855C77.1603 49.6597 77.1379 49.6376 77.1125 49.6201C77.0872 49.6027 77.0587 49.5904 77.0285 49.584H76.551L76.5422 50.1689Z" fill="black"/>
<path fill-rule="evenodd" clip-rule="evenodd" d="M76.8576 48.6123C77.0738 48.5955 77.2912 48.6211 77.4973 48.6885C77.7034 48.7559 77.8943 48.8636 78.0588 49.0049C78.2232 49.1461 78.3586 49.3182 78.4563 49.5117C78.554 49.7053 78.6122 49.9166 78.6282 50.1328C78.6441 50.349 78.6172 50.5666 78.549 50.7725C78.4809 50.9782 78.3725 51.1682 78.2307 51.332C78.0888 51.496 77.9159 51.6306 77.7219 51.7275C77.528 51.8244 77.317 51.8823 77.1008 51.8975H76.8576C76.6415 51.9143 76.424 51.8886 76.218 51.8213C76.0119 51.7539 75.821 51.6461 75.6565 51.5049C75.492 51.3636 75.3567 51.1907 75.259 50.9971C75.1614 50.8037 75.1032 50.593 75.0871 50.377C75.0711 50.1607 75.0981 49.9432 75.1662 49.7373C75.2344 49.5314 75.3427 49.3407 75.4846 49.1768C75.6265 49.0129 75.7995 48.8782 75.9934 48.7812C76.1872 48.6844 76.3984 48.6275 76.6145 48.6123H76.8576ZM77.3098 48.8779C77.0383 48.8058 76.7514 48.8156 76.4856 48.9062C76.2196 48.9969 75.9866 49.1647 75.8157 49.3877C75.6447 49.6108 75.5439 49.8797 75.5256 50.1602V50.2686C75.516 50.4434 75.5408 50.6189 75.5989 50.7842C75.6569 50.9492 75.7467 51.1012 75.8635 51.2314C75.9805 51.3618 76.1225 51.4683 76.2805 51.5439C76.4386 51.6195 76.6104 51.6636 76.7854 51.6729H76.8576C77.1381 51.69 77.4175 51.6229 77.6604 51.4814C77.903 51.3401 78.0984 51.1302 78.2219 50.8779C78.3454 50.6255 78.3912 50.342 78.3537 50.0635C78.3163 49.7849 78.1977 49.5234 78.0119 49.3125C77.8262 49.1016 77.5814 48.9502 77.3098 48.8779Z" fill="black"/>
<path d="M47.3225 48.4678H35.2063V51.7354H31.9123V48.666C31.9103 48.5367 31.8757 48.4098 31.8127 48.2969L23.0627 32.9033L22.9104 32.751L34.5227 26.1797L47.3225 48.4678Z" fill="black"/>
<path d="M27.1047 48.5127H11.8742C11.8059 48.5206 11.7368 48.5065 11.677 48.4727C11.6172 48.4388 11.5695 48.3868 11.5412 48.3242C10.9021 47.145 10.245 45.9829 9.5969 44.8037L9.49729 44.6064L20.9299 37.9629L27.1047 48.5127Z" fill="black"/>
<path d="M67.5588 48.4678H52.3635C52.2918 48.4761 52.2194 48.4612 52.1565 48.4258C52.0934 48.3902 52.0429 48.3355 52.0129 48.2695L36.1965 20.7246L47.6467 14L67.5588 48.4678Z" fill="black"/>
</svg>
