<svg width="80" height="80" viewBox="0 0 80 80" fill="none" xmlns="http://www.w3.org/2000/svg">
<path d="M36.6357 67.5147C36.8411 67.3801 39.8716 66.7372 41.3604 68.4014C42.8496 70.0664 40.9541 74.0137 40.9541 74.0137L39.8311 74.1475C39.8311 74.1475 39.1402 74.0805 39.3838 73.6241C40.9136 70.214 40.1288 68.8848 38.9375 68.6563C37.746 68.4281 36.9739 68.858 36.7031 68.9385C36.4324 69.0185 36.2161 67.7832 36.6357 67.5147Z" fill="black"/>
<path fill-rule="evenodd" clip-rule="evenodd" d="M71.2686 72.8585C71.4716 72.8585 71.5664 72.9395 71.5664 73.1006C71.5664 73.1138 71.5668 73.1143 71.5801 73.1143C71.5664 73.2348 71.4721 73.3289 71.3506 73.3292L71.5938 73.7051H71.4316L71.1875 73.3292H71.0791V73.7051H70.9443V72.8585H71.2686ZM71.0791 72.9795V73.2217H71.2285C71.3636 73.2217 71.4315 73.1944 71.4316 73.1006C71.4316 73.0067 71.3633 72.9795 71.2686 72.9795H71.0791Z" fill="black"/>
<path fill-rule="evenodd" clip-rule="evenodd" d="M71.2285 72.5499C71.6345 72.55 71.959 72.8856 71.9727 73.2881C71.9727 73.7043 71.6346 74.0263 71.2285 74.0264C70.8088 74.0264 70.4834 73.6909 70.4834 73.2881C70.4836 72.872 70.8224 72.5499 71.2285 72.5499ZM71.2148 72.6973C70.8764 72.6973 70.6192 72.9662 70.6191 73.3018C70.6191 73.6375 70.89 73.8926 71.2285 73.8926C71.5533 73.8791 71.8242 73.6105 71.8242 73.3018V73.2881C71.8241 72.9527 71.5532 72.6974 71.2148 72.6973Z" fill="black"/>
<path d="M22.8252 67.3672C24.4634 67.3672 25.3162 68.5353 25.3027 69.502V74.0001H18.8994C17.532 74.0001 16.3945 73.1672 16.3945 71.9454C16.3947 70.9787 17.234 69.8106 18.8721 69.8106H23.0557V71.2071H18.8857C18.3577 71.2071 18.0596 71.5028 18.0596 71.8653C18.0596 72.2278 18.3848 72.5362 18.8857 72.5362H23.6514V69.4883C23.6512 69.1125 23.3531 68.8311 22.8252 68.8311H17.4639V67.3672H22.8252Z" fill="black"/>
<path d="M28.0107 74.0001H26.3594V67.3672H28.0107V74.0001Z" fill="black"/>
<path d="M35.9453 74.0001H34.293V65.7159H35.9453V74.0001Z" fill="black"/>
<path d="M54.1416 74.0001H52.4902V67.3672H54.1416V74.0001Z" fill="black"/>
<path d="M15.6631 68.8311H11.2227C10.5186 68.8311 9.66504 69.6364 9.66504 70.6837C9.66506 71.7308 10.5181 72.536 11.168 72.5362H15.6768V73.9864H11.6416C9.46205 73.9996 8.00002 72.617 8 70.6837C8 68.7502 9.35436 67.3672 11.5342 67.3672H15.6631V68.8311Z" fill="black"/>
<path d="M48.9697 67.3672C50.6078 67.3672 51.4471 68.5351 51.4473 69.4883V73.9864H45.043C43.6758 73.9862 42.5393 73.1542 42.5391 71.9327C42.5391 70.9659 43.3784 69.7979 45.0166 69.7979H49.1865V71.2071H45.0166C44.4886 71.2071 44.1904 71.5028 44.1904 71.8653C44.1905 72.2278 44.5157 72.5362 45.0166 72.5362H49.7822V69.4883C49.7821 69.1125 49.4839 68.8311 48.9561 68.8311H43.5947V67.3672H48.9697Z" fill="black"/>
<path d="M63.2266 67.3672H65.5283V68.8848H63.2266V73.9864H61.5479V68.8848H60.1123V67.3672H61.5479V66.1319H63.2266V67.3672Z" fill="black"/>
<path d="M69.6982 67.3672H72V68.8848H69.6982V73.9864H68.0195V68.8848H66.584V67.3672H68.0195V66.1319H69.6982V67.3672Z" fill="black"/>
<path d="M28.7012 67.5284C28.9042 67.4075 31.463 66.9108 32.5869 67.9444C33.5075 68.7767 33.3721 69.5421 33.3721 70.6026C33.3585 70.8711 31.7755 70.9923 31.7881 70.6436C31.8422 69.3546 31.3822 68.8177 30.624 68.67C29.4332 68.4418 29.0268 68.8704 28.7695 68.9512C28.5123 69.0318 28.2818 67.7973 28.7012 67.5284Z" fill="black"/>
<path d="M54.832 67.5284C55.0351 67.4075 57.5939 66.9108 58.7178 67.9444C59.6383 68.7767 59.5028 69.5421 59.4893 70.6026C59.4893 70.8711 57.9063 70.9924 57.9189 70.6436C57.9731 69.3547 57.513 68.8177 56.7549 68.67C55.5777 68.4419 55.1577 68.8703 54.9004 68.9512C54.6432 69.0318 54.4126 67.7972 54.832 67.5284Z" fill="black"/>
<path d="M52.084 7.01373C52.1305 7.01136 60.4269 6.59512 66.3135 10.7188C70.6731 13.8473 71.0654 17.7688 70.8623 19.9708C70.8616 19.98 70.8486 20.1494 70.8223 20.293C70.7816 20.7761 70.6869 21.2459 70.5381 21.7022C69.7393 24.1726 67.5864 25.9452 65.0547 25.9454C61.846 25.9454 59.2463 23.099 59.2461 19.5948C59.2461 16.0904 61.8459 13.2432 65.0547 13.2432H65.2305C59.9465 11.4252 56.5949 14.6648 56.5654 14.6934C55.2251 15.9555 54.2361 17.5264 53.708 19.2852C52.0969 24.5619 54.8727 30.054 59.9092 31.5713C64.9458 33.0886 70.3351 30.0405 71.9463 24.7637V61.2442H52.084C37.2991 61.2442 25.3164 49.0931 25.3164 34.1221C25.3165 19.1513 37.2992 7.01373 52.084 7.01373Z" fill="black"/>
</svg>
