<svg width="80" height="80" viewBox="0 0 80 80" fill="none" xmlns="http://www.w3.org/2000/svg">
<g clip-path="url(#clip0_11388_11858)">
<path fill-rule="evenodd" clip-rule="evenodd" d="M14.832 20.0311C28.6674 12.4573 58.7252 11.8783 72.6302 22.2779C75.1099 24.154 76.2919 25.4742 76.6858 27.2576C76.9639 29.0642 76.6165 28.5778 75.7127 28.323C75.1565 28.1377 73.8355 27.6746 73.3488 27.4893C71.9583 26.9797 71.3788 26.7945 70.081 26.3775C67.1146 25.4047 61.8075 23.8529 57.1958 23.2043C56.2688 23.0654 55.3649 22.9727 54.4379 22.9264C53.3488 22.88 53.3951 22.9265 53.4878 24.3394V55.5844C53.4646 56.2561 53.6269 56.2793 54.8088 56.1635C60.6026 55.7466 73.65 52.5502 78.679 50.0256C79.606 49.5161 80.672 49.1919 79.5132 50.5816C78.6789 51.508 77.752 52.3883 76.7786 53.1758C56.4078 69.6205 29.2004 65.5673 15.4344 59.7769C-0.996592 53.0599 -8.66741 32.608 14.832 20.0311ZM29.8493 24.2002C29.8725 22.7875 29.9189 22.6717 28.8298 22.7875C2.24809 25.5669 -2.71144 52.6661 28.8528 56.372C29.5944 56.372 29.8725 56.3719 29.8493 55.7002V24.2002Z" fill="black"/>
<path fill-rule="evenodd" clip-rule="evenodd" d="M75.0405 58.5955C75.5735 58.5955 75.8516 58.7807 75.8516 59.244C75.8516 59.2671 75.8517 59.2672 75.8285 59.2903C75.8285 59.6146 75.5503 59.8924 75.2259 59.8924L75.898 60.9116H75.504L74.9015 59.9157H74.5075V60.9116H74.1599V58.5955H75.0405ZM74.5075 59.5914H74.9479C75.2491 59.5914 75.504 59.5682 75.504 59.2209C75.504 58.9198 75.2259 58.8735 74.9941 58.8735H74.5075V59.5914Z" fill="black"/>
<path fill-rule="evenodd" clip-rule="evenodd" d="M74.9246 57.7384C76.0602 57.7384 76.9641 58.6419 76.9409 59.7305C76.9408 60.8422 76.0602 61.7453 74.9479 61.7454C73.8587 61.7454 72.9317 60.8653 72.9317 59.7536C72.9317 58.665 73.8122 57.7384 74.9246 57.7384ZM74.8321 58.0859C73.9051 58.109 73.1866 58.8735 73.2098 59.7999C73.2323 60.6974 73.9506 61.3993 74.8382 61.4212H74.971C75.8466 61.3988 76.5263 60.7024 76.5469 59.8377V59.7072C76.5237 58.7808 75.759 58.0628 74.8321 58.0859Z" fill="black"/>
</g>
<defs>
<clipPath id="clip0_11388_11858">
<rect width="80" height="80" fill="white"/>
</clipPath>
</defs>
</svg>
