<svg width="80" height="80" viewBox="0 0 80 80" fill="none" xmlns="http://www.w3.org/2000/svg">
<path fill-rule="evenodd" clip-rule="evenodd" d="M49.4429 33.2403C49.8638 33.0673 50.3269 33.0256 50.772 33.1202C51.2172 33.2149 51.6239 33.4413 51.938 33.7706C52.3491 34.2018 52.5764 34.7763 52.5718 35.3721V45.546C52.5908 45.855 52.5461 46.1649 52.4409 46.4561C52.3357 46.7475 52.1717 47.0146 51.9595 47.2403C51.7474 47.4658 51.4917 47.6457 51.2075 47.7686C50.9234 47.8915 50.6168 47.9551 50.3072 47.9551C49.9974 47.9551 49.6901 47.8915 49.4058 47.7686C49.1217 47.6457 48.8659 47.4658 48.6538 47.2403C48.4416 47.0146 48.2776 46.7475 48.1724 46.4561C48.0672 46.1649 48.0225 45.855 48.0415 45.546V35.3721C48.0333 34.9171 48.1627 34.4703 48.4126 34.0899C48.6626 33.7095 49.0219 33.4133 49.4429 33.2403ZM50.2144 34.4717C50.0923 34.4808 49.9746 34.5224 49.8745 34.5928C49.7332 34.6718 49.6169 34.7894 49.5396 34.9317C49.4623 35.0741 49.4263 35.2359 49.437 35.3975C49.4799 37.1103 49.4722 38.7983 49.4722 40.4854V45.5294C49.4681 45.6774 49.4994 45.8243 49.565 45.9571C49.6306 46.0898 49.7281 46.2045 49.8482 46.2911C49.9709 46.3855 50.122 46.4366 50.2769 46.4366C50.4317 46.4366 50.5819 46.3854 50.7046 46.2911C50.8396 46.2076 50.949 46.0883 51.02 45.9464C51.0911 45.8042 51.1212 45.6447 51.107 45.4864V35.3467C51.1089 35.1738 51.0587 35.0041 50.9624 34.8604C50.8662 34.7168 50.7285 34.6061 50.5679 34.5421C50.4586 34.4871 50.3364 34.4628 50.2144 34.4717Z" fill="black"/>
<path d="M47.0562 35.7149H45.6353V34.7217H44.8296C44.6026 34.7219 44.3846 34.8122 44.2241 34.9727C44.0638 35.1333 43.9741 35.3512 43.9741 35.5782V45.5547C43.9591 45.7122 43.9876 45.8707 44.0572 46.0128C44.1267 46.1548 44.2341 46.2747 44.3677 46.3594C44.4776 46.4546 44.6153 46.5127 44.7603 46.5235C44.9051 46.5343 45.0497 46.4977 45.1724 46.42C45.3235 46.3482 45.4509 46.233 45.5376 46.0899C45.6242 45.947 45.6668 45.7813 45.6607 45.6143V45.169H47.0825C47.2009 45.7719 47.0749 46.3978 46.7329 46.9083C46.391 47.4186 45.8608 47.7726 45.2583 47.8926H45.1382C44.8434 47.9374 44.5427 47.9231 44.2534 47.8506C43.9641 47.7782 43.6917 47.6492 43.4527 47.4708C43.2137 47.2924 43.0125 47.0683 42.8609 46.8116C42.7092 46.5548 42.6097 46.2701 42.5689 45.9747C42.5604 45.8464 42.5604 45.7172 42.5689 45.5889V35.4815C42.5793 35.1584 42.6602 34.841 42.8052 34.5508C42.9711 34.2191 43.2168 33.9334 43.52 33.7198C43.8765 33.4429 44.3103 33.284 44.7613 33.2657H47.0562V35.7149Z" fill="black"/>
<path fill-rule="evenodd" clip-rule="evenodd" d="M60.4575 33.0655C61.0465 33.0832 61.6047 33.3335 62.0093 33.7618C62.2268 33.9781 62.399 34.2367 62.5152 34.5206C62.6312 34.8043 62.6895 35.1086 62.6861 35.4151V39.1749C62.6518 39.6085 62.6343 40.0451 62.6343 40.4844V45.546C62.6513 45.9324 62.575 46.3174 62.4116 46.668C62.1891 47.0978 61.8368 47.4468 61.4048 47.6651C60.9729 47.8833 60.4833 47.9596 60.0054 47.8839C59.5354 47.8096 59.1003 47.5898 58.7622 47.2549C58.4241 46.9199 58.2002 46.4861 58.1216 46.0167C58.1095 45.8629 58.1094 45.7085 58.1216 45.5547V35.4493C58.1112 35.1164 58.1718 34.7849 58.3003 34.4776C58.4288 34.1704 58.6224 33.8944 58.8667 33.668C59.2964 33.2647 59.8685 33.0478 60.4575 33.0655ZM60.3736 34.546C60.2794 34.546 60.1858 34.5649 60.0991 34.6016C59.9338 34.6615 59.791 34.7712 59.69 34.9151C59.5889 35.0591 59.5348 35.2304 59.5347 35.4063C59.5404 37.1018 59.5425 38.7946 59.5425 40.4844H59.5347V45.5635C59.5309 45.6786 59.5519 45.7932 59.5962 45.8995C59.6405 46.0058 59.7071 46.1014 59.7915 46.1797C59.8803 46.2886 59.998 46.3701 60.1314 46.4141C60.2648 46.4581 60.4083 46.4626 60.5445 46.4278C60.723 46.3763 60.8818 46.2718 60.9995 46.128C61.1173 45.9842 61.1893 45.8083 61.2046 45.6231V35.4581C61.2161 35.2745 61.1681 35.0918 61.0679 34.9376C60.9677 34.7834 60.8203 34.6657 60.648 34.6016C60.5613 34.5649 60.4677 34.546 60.3736 34.546Z" fill="black"/>
<path fill-rule="evenodd" clip-rule="evenodd" d="M25.9292 33.0518C26.4862 33.0454 27.0269 33.2403 27.4517 33.6006C27.8765 33.9609 28.1572 34.4622 28.2417 35.0128C28.2509 35.1524 28.2509 35.293 28.2417 35.4327V45.5635C28.2492 45.899 28.1808 46.2318 28.0415 46.5372C27.9022 46.8426 27.6954 47.1129 27.437 47.3272C27.1364 47.5966 26.7685 47.7807 26.3726 47.8594C25.9768 47.9381 25.5668 47.9084 25.1861 47.7745C24.8054 47.6405 24.4679 47.4068 24.2085 47.0977C23.9492 46.7886 23.7773 46.4157 23.7115 46.0176C23.6966 45.8524 23.6966 45.6858 23.7115 45.5206C23.7286 43.8479 23.7368 42.1695 23.7368 40.4854V35.4239C23.7209 34.9554 23.847 34.4931 24.0972 34.0967C24.2919 33.7841 24.5614 33.5243 24.8814 33.3419C25.2012 33.1596 25.5613 33.0602 25.9292 33.0518ZM26.1421 34.5303C25.944 34.4955 25.7396 34.5366 25.5698 34.6446C25.4416 34.7246 25.3368 34.8371 25.2661 34.9708C25.1955 35.1046 25.1613 35.2551 25.1675 35.4063V45.5635C25.1646 45.679 25.1844 45.7941 25.2271 45.9014C25.2698 46.0089 25.3341 46.1065 25.4156 46.1885C25.5093 46.3058 25.6369 46.3918 25.7808 46.4346C25.9245 46.4774 26.0777 46.4745 26.2202 46.4278C26.3989 46.3653 26.5549 46.2506 26.6665 46.0977C26.7781 45.9449 26.8411 45.7615 26.8462 45.5723C26.8291 43.8854 26.8374 42.198 26.8374 40.4854V35.4063C26.8439 35.1976 26.7735 34.9938 26.6402 34.8331C26.5176 34.6737 26.3401 34.5653 26.1421 34.5303Z" fill="black"/>
<path fill-rule="evenodd" clip-rule="evenodd" d="M8.73293 33.0518C9.29585 33.0399 9.8438 33.2342 10.273 33.5987C10.7021 33.9631 10.9835 34.472 11.063 35.0294C11.0705 35.1519 11.0704 35.275 11.063 35.3975V45.5889C11.0788 46.0372 10.9571 46.4796 10.7154 46.8575C10.4737 47.2352 10.123 47.5306 9.7095 47.7042C9.37719 47.8535 9.01352 47.9193 8.64993 47.8965C8.28618 47.8737 7.93278 47.763 7.62161 47.5733C7.31049 47.3836 7.05062 47.1205 6.86379 46.8077C6.67697 46.4948 6.5688 46.1413 6.54934 45.7774V45.46C6.53792 43.8045 6.53176 42.1457 6.53176 40.4844V35.4581C6.51634 35.0608 6.6025 34.666 6.78079 34.3106C6.95804 33.9408 7.23394 33.6266 7.57864 33.4044C7.92326 33.1822 8.323 33.0607 8.73293 33.0518ZM8.85501 34.5616C8.71386 34.5583 8.57422 34.5928 8.45071 34.6612C8.30761 34.7391 8.18975 34.8565 8.11086 34.9991C8.03198 35.1417 7.99534 35.3042 8.0054 35.4669V45.6319C8.00358 45.748 8.02569 45.8633 8.06985 45.9708C8.11402 46.0782 8.17927 46.1756 8.26223 46.2569C8.34713 46.3613 8.45875 46.4411 8.58547 46.4864C8.71231 46.5317 8.85002 46.5408 8.98196 46.5137C9.17971 46.4754 9.3581 46.3685 9.48489 46.212C9.61162 46.0554 9.67898 45.8587 9.67532 45.6573V40.5196L9.63235 40.4844V35.3897C9.63789 35.2486 9.60599 35.1081 9.53958 34.9835C9.47313 34.8588 9.37468 34.7538 9.25442 34.6797C9.13416 34.6057 8.9962 34.5649 8.85501 34.5616Z" fill="black"/>
<path d="M71.2495 33.1368C71.5957 33.0149 71.9661 32.9785 72.3296 33.0294C72.6931 33.0802 73.0399 33.2175 73.3394 33.4297C73.6386 33.642 73.8829 33.9231 74.0513 34.2491C74.2196 34.5751 74.3074 34.9368 74.3072 35.3038V36.7764C73.8225 36.812 73.3357 36.812 72.8511 36.7764V35.211C72.8444 35.1098 72.8188 35.0102 72.7749 34.918C72.7166 34.7953 72.6275 34.6897 72.5171 34.6104C72.4113 34.5104 72.2773 34.4453 72.1333 34.4239C71.9894 34.4025 71.8427 34.4255 71.7124 34.4903C71.569 34.5413 71.4431 34.6323 71.3491 34.752C71.2552 34.8717 71.1967 35.0157 71.1812 35.1671V37.2393C71.1783 37.3509 71.2084 37.4608 71.2671 37.5557L74.1958 42.4376C74.249 42.5251 74.2759 42.6262 74.273 42.7286V45.5294C74.2889 46.115 74.0779 46.6846 73.6851 47.1192C73.2922 47.5536 72.7468 47.8204 72.1626 47.8633C71.5783 47.9063 70.9997 47.7221 70.5474 47.3497C70.0952 46.9773 69.8039 46.4449 69.7339 45.8633C69.7267 45.735 69.7267 45.606 69.7339 45.4776V44.0215L71.2495 44.1075V45.6231C71.2664 45.8143 71.3441 45.9951 71.4702 46.1397C71.5963 46.2842 71.7647 46.3851 71.9517 46.4278C72.0745 46.4655 72.2059 46.4655 72.3286 46.4278C72.4941 46.368 72.6377 46.2593 72.7388 46.1153C72.8399 45.9713 72.894 45.7991 72.8941 45.6231V43.088C72.8888 43.015 72.8653 42.9444 72.8257 42.8829L70.7613 39.4571L69.9048 37.9756C69.8615 37.9094 69.8378 37.8321 69.8364 37.753V35.2608C69.8388 34.8075 69.974 34.3648 70.2251 33.9874C70.4762 33.6099 70.8323 33.3141 71.2495 33.1368Z" fill="black"/>
<path d="M5.54739 35.7149H4.1343V34.7217H3.32961C3.12017 34.734 2.92233 34.8224 2.77395 34.9708C2.62555 35.1192 2.53619 35.3169 2.52395 35.5264V45.5723C2.52013 45.7862 2.59724 45.9939 2.73879 46.1544C2.80712 46.2356 2.8906 46.3029 2.98489 46.3516C3.07926 46.4004 3.18272 46.4298 3.2886 46.4385C3.3944 46.4473 3.50104 46.435 3.60208 46.4024C3.70313 46.3698 3.79671 46.3171 3.87747 46.2481L3.94583 46.1797C4.02547 46.1035 4.08865 46.0119 4.13137 45.9102C4.17409 45.8086 4.19515 45.6992 4.19387 45.5889V45.1348H5.5386C5.5942 45.6321 5.51409 46.1353 5.30715 46.5909C5.0849 47.0213 4.73306 47.3712 4.30129 47.5909C3.86957 47.8105 3.37965 47.8892 2.9009 47.8155C2.42826 47.7392 1.9918 47.5149 1.65481 47.1749C1.31784 46.8347 1.09779 46.3963 1.0259 45.9229C1.01481 45.7747 1.0148 45.6258 1.0259 45.4776V35.5782C0.992679 34.9938 1.18187 34.4179 1.55618 33.9678C1.77379 33.734 2.03995 33.55 2.33547 33.4288C2.63106 33.3076 2.9499 33.252 3.26907 33.2657H5.54739V35.7149Z" fill="black"/>
<path fill-rule="evenodd" clip-rule="evenodd" d="M66.3853 33.0499C66.8995 33.0154 67.4093 33.1643 67.8238 33.4708C68.1223 33.6775 68.3665 33.9541 68.5337 34.2764C68.7008 34.5987 68.7868 34.9573 68.7837 35.3204V39.4913C68.7836 40.0177 68.5913 40.5266 68.2437 40.9219L68.1323 40.9991C68.2351 41.1446 68.347 41.2901 68.4497 41.4356C68.6302 41.7362 68.7304 42.0783 68.7407 42.4288V47.7042H67.3013V42.5235C67.3013 42.3101 67.2168 42.1051 67.0659 41.9542C66.915 41.8032 66.7101 41.7178 66.4966 41.7178H65.6402V47.713C65.1584 47.7474 64.6747 47.7474 64.1929 47.713V35.3204C64.1959 35.2629 64.1857 35.2056 64.1636 35.1524C64.1414 35.0992 64.108 35.0512 64.065 35.0128C63.7909 34.7558 63.5333 34.4811 63.2593 34.2071V34.1046L64.2525 33.0684L64.9204 33.7364L65.0152 33.6592C65.3851 33.3001 65.8708 33.0844 66.3853 33.0499ZM66.6421 34.5157C66.5192 34.4796 66.3881 34.4795 66.2652 34.5157C66.0737 34.5609 65.9038 34.6713 65.7837 34.8272C65.6637 34.9831 65.6007 35.1754 65.606 35.3721V40.254H66.4029C66.6298 40.2539 66.8478 40.1635 67.0083 40.003C67.1688 39.8425 67.2592 39.6245 67.2593 39.3975V35.3721C67.2669 35.1811 67.2098 34.9931 67.0982 34.838C66.9864 34.6827 66.8258 34.5691 66.6421 34.5157Z" fill="black"/>
<path d="M13.8716 34.5157C13.8593 34.5864 13.8594 34.6589 13.8716 34.7296L15.0708 37.9503V38.0782L15.1304 37.959L16.3726 34.8243C16.3849 34.7536 16.3848 34.6811 16.3726 34.6104V33.4796L16.4409 33.2657H17.897V47.7042C17.4124 47.7381 16.9256 47.7381 16.4409 47.7042V38.627L15.1392 41.838C14.908 41.2727 14.6941 40.7502 14.48 40.2364L13.8716 38.627V47.6446C13.4041 47.6782 12.9348 47.6782 12.4673 47.6446V33.2051H13.8716V34.5157Z" fill="black"/>
<path fill-rule="evenodd" clip-rule="evenodd" d="M31.8618 33.0108C32.336 32.9535 32.8159 33.0553 33.2261 33.2999C33.5657 33.499 33.8466 33.7844 34.0406 34.127C34.2345 34.4698 34.3348 34.8582 34.3306 35.252V39.3546C34.3481 39.8024 34.2353 40.2461 34.0054 40.6309C33.9449 40.7704 33.8636 40.8998 33.7652 41.0157L33.9536 41.2471C34.1946 41.5881 34.3262 41.9947 34.3306 42.4122V47.7042H32.9429V42.712C32.9496 42.6208 32.9496 42.5288 32.9429 42.4376C32.9197 42.2408 32.8248 42.0589 32.6763 41.9278C32.5278 41.7969 32.3362 41.7253 32.1382 41.7266H31.3423V47.7217H29.8345V35.2608C29.8372 35.2077 29.8279 35.1544 29.8072 35.1055C29.7864 35.0567 29.7544 35.0135 29.7144 34.9786L28.9097 34.1729L28.7896 34.088L29.8521 33.0342L30.5113 33.6934L30.605 33.6163C30.9451 33.2809 31.3876 33.0681 31.8618 33.0108ZM32.3091 34.5421C32.1862 34.5065 32.056 34.5065 31.9331 34.5421C31.7415 34.5873 31.5708 34.6966 31.4507 34.8526C31.3307 35.0084 31.2678 35.2009 31.273 35.3975V40.254H32.2329C32.3495 40.2347 32.4588 40.1844 32.5493 40.1085C32.6813 40.0227 32.787 39.9018 32.855 39.7598C32.923 39.6178 32.9511 39.4594 32.9351 39.3028V35.3467C32.9309 35.1634 32.8679 34.9858 32.7554 34.8409C32.6428 34.696 32.4858 34.5916 32.3091 34.5421Z" fill="black"/>
<path d="M22.6157 33.2657C22.6522 33.7445 22.6522 34.2254 22.6157 34.7042H20.6197V39.2256H22.5386C22.5747 39.7131 22.5747 40.203 22.5386 40.6905H20.6197V47.7042H19.19V33.2657H22.6157Z" fill="black"/>
<path d="M39.3316 34.7042H37.9273V47.7042H36.48L36.4888 34.7042H35.0503V33.2657H39.3316V34.7042Z" fill="black"/>
<path d="M55.2613 46.2481H57.6675V47.7042H53.8736L53.8482 33.2657H55.2613V46.2481Z" fill="black"/>
<path fill-rule="evenodd" clip-rule="evenodd" d="M77.8091 33.8223C77.912 33.8331 78.0074 33.8822 78.0757 33.96C78.144 34.0378 78.181 34.1388 78.1782 34.2422C78.1905 34.3496 78.1606 34.458 78.0952 34.544C78.0298 34.63 77.9334 34.6872 77.8267 34.7042H77.6558L78.1519 35.4669C78.0573 35.5061 77.9539 35.5201 77.8521 35.5089L77.3384 34.7042H77.0728C77.0506 34.8345 77.0506 34.9683 77.0728 35.0987V35.4835H76.8589V33.8223H77.8091ZM77.7583 34.0704C77.5262 34.0283 77.2883 34.0284 77.0562 34.0704L77.0474 34.4815H77.7495C77.8004 34.4731 77.8461 34.445 77.8765 34.4034C77.9069 34.3618 77.92 34.3098 77.9126 34.2589C77.9133 34.2144 77.8978 34.1712 77.8697 34.1368C77.8414 34.1023 77.8021 34.0785 77.7583 34.0704Z" fill="black"/>
<path fill-rule="evenodd" clip-rule="evenodd" d="M77.4156 33.1114C77.8267 33.1114 78.2213 33.274 78.5132 33.5635C78.8051 33.8531 78.9707 34.2462 78.9741 34.6573C78.9775 35.0684 78.8188 35.4646 78.5318 35.7589C78.2447 36.0531 77.852 36.2218 77.4409 36.2286H77.3902C76.9792 36.2218 76.5874 36.053 76.3003 35.7589C76.0132 35.4646 75.8536 35.0684 75.857 34.6573C75.8604 34.2462 76.0261 33.853 76.3179 33.5635C76.6098 33.2741 77.0045 33.1114 77.4156 33.1114ZM77.3814 33.3428C77.0294 33.3429 76.6918 33.4826 76.4429 33.7315C76.194 33.9804 76.0542 34.318 76.0542 34.67C76.0542 34.9325 76.132 35.189 76.2779 35.4073C76.4237 35.6256 76.631 35.7961 76.8736 35.8965C77.116 35.9969 77.3828 36.0229 77.6402 35.9717C77.8976 35.9205 78.1342 35.7941 78.3198 35.6085C78.5055 35.4228 78.6319 35.1863 78.6831 34.9288C78.7343 34.6714 78.7083 34.4046 78.6079 34.1622C78.5075 33.9196 78.337 33.7123 78.1187 33.5665C77.9004 33.4206 77.6439 33.3428 77.3814 33.3428Z" fill="black"/>
</svg>
