<svg width="80" height="80" viewBox="0 0 80 80" fill="none" xmlns="http://www.w3.org/2000/svg">
<g clip-path="url(#clip0_11388_11857)">
<path d="M23.2364 40.5491C23.2177 41.2369 23.2704 41.9248 23.3943 42.6021C23.4572 42.9431 23.597 43.2655 23.8028 43.5456L23.9126 43.7065C24.4663 44.2672 25.5302 44.5692 27.0418 44.5692H30.5571V47.2262H26.5406C25.5416 47.2521 24.5438 47.1355 23.5788 46.8808C22.8145 46.6523 22.1218 46.2363 21.5662 45.6728C21.3246 45.4104 21.115 45.1206 20.9423 44.8101C20.7603 44.4991 20.6215 44.1656 20.5295 43.8186C20.4349 43.4299 20.3705 43.0347 20.3364 42.6366C20.2866 42.1292 20.263 41.6191 20.266 41.1093V32.0261H23.2364V40.5491Z" fill="black"/>
<path d="M64.1544 32.0261C64.64 31.9588 65.1338 32.076 65.5344 32.3538C65.9313 32.7187 66.3012 33.111 66.6415 33.5273L73.1014 42.6712V32.0261H76.0014V47.2001H73.8919C73.507 47.2033 73.1264 47.1234 72.7762 46.9667C72.278 46.5788 71.8623 46.0983 71.554 45.5523L65.1568 36.5635V47.174H62.274V32.0261H64.1544Z" fill="black"/>
<path d="M18.8242 47.1917H15.8367V32H18.8242V47.1917Z" fill="black"/>
<path fill-rule="evenodd" clip-rule="evenodd" d="M39.9341 32.0607C40.4672 32.0831 40.9968 32.1553 41.5159 32.2763C41.9498 32.3963 42.3644 32.5765 42.7466 32.8113C43.124 33.0597 43.4718 33.3492 43.7833 33.6739C44.4939 34.3581 45.0351 35.1935 45.365 36.1153C45.6755 37.0585 45.8461 38.0399 45.8723 39.0293L45.7607 39.4278C45.8045 40.9013 45.5443 42.3686 44.996 43.7411C44.5399 44.829 43.7303 45.739 42.6934 46.329C42.1368 46.6809 41.5158 46.9242 40.8653 47.0451C40.4643 47.1129 40.0591 47.1556 39.6526 47.174H31.6376V32.0607H39.9341ZM38.1851 34.39H34.6697V44.8362H38.3258C39.0711 44.8616 39.8146 44.745 40.5143 44.4917C41.0456 44.2717 41.4941 43.8947 41.7974 43.4133C42.1136 42.9478 42.3347 42.426 42.4479 41.8776C42.5735 41.2742 42.6408 40.6607 42.6496 40.0453L42.7371 39.7816C42.7474 38.93 42.6471 38.0801 42.4385 37.2534C42.2598 36.6289 41.9615 36.0431 41.5596 35.5281C41.2421 35.1312 40.8153 34.8316 40.3298 34.6655C39.6351 34.4594 38.9104 34.3667 38.1851 34.39Z" fill="black"/>
<path fill-rule="evenodd" clip-rule="evenodd" d="M61.3076 47.1479H59.1543C58.8213 47.1836 58.4862 47.0982 58.2137 46.9069C58.0481 46.7372 57.9173 46.5376 57.8275 46.3198L56.5967 43.3266H50.1463C49.9739 43.317 49.8034 43.366 49.6631 43.4647C49.4759 43.71 49.3244 43.98 49.2142 44.2667L47.9749 47.174H44.8201L50.7436 33.6133C50.9116 33.1238 51.216 32.6903 51.6224 32.3622C51.9107 32.1534 52.2572 32.0363 52.6154 32.0261H54.997L61.3076 47.1479ZM52.8617 35.6579L52.6772 36.1153L50.5943 41.0065H55.6038L53.1518 34.9502C53.0376 35.2435 52.9496 35.4422 52.8617 35.6579Z" fill="black"/>
<path d="M13.885 34.6655H7.03033C6.73564 34.672 6.44167 34.7014 6.1515 34.7522C5.94106 34.7847 5.73439 34.8392 5.53614 34.9157C5.35096 34.9914 5.17209 35.0814 5.0006 35.1836C3.7615 35.9082 3.17257 37.4438 3.17257 39.7125V40.4623C3.20047 40.7986 3.25034 41.1331 3.3219 41.4631C3.44089 42.0166 3.66446 42.5439 3.98102 43.0166C4.16381 43.311 4.38866 43.5784 4.64873 43.8101C4.88839 44.0021 5.16269 44.1485 5.45718 44.2415C5.82032 44.3697 6.19835 44.4537 6.58233 44.4917C7.10765 44.5467 7.63576 44.5725 8.16405 44.5692H10.8005V40.9282H6.06396V38.2972H13.7889V47.1394H7.83878C7.10074 47.1394 6.433 47.1137 5.87944 47.0619C5.36589 47.0196 4.85673 46.9332 4.35865 46.8033C3.92832 46.6896 3.51496 46.5212 3.1288 46.3029C1.88725 45.5891 0.95077 44.4581 0.492304 43.1193C0.14388 42.0019 -0.0227527 40.8371 -0.000321897 39.6687C-0.000257306 36.3046 0.99285 34.0616 2.97002 32.9402C3.26864 32.76 3.58367 32.6067 3.91065 32.4827C4.26242 32.3569 4.62434 32.2589 4.99202 32.1895C5.31627 32.1277 5.6434 32.0819 5.97213 32.0514L6.38064 32.0261H13.885V34.6655Z" fill="black"/>
<path fill-rule="evenodd" clip-rule="evenodd" d="M78.5589 32.6731C78.9046 32.6732 79.0957 32.7786 79.1383 33.0185L79.1829 33.1129C79.1829 33.1672 79.1715 33.221 79.1503 33.2712C79.1291 33.3215 79.0985 33.3676 79.0593 33.406C79.0201 33.4444 78.9731 33.4745 78.922 33.4953C78.8708 33.5161 78.816 33.5273 78.7606 33.5273L79.1734 34.2518H78.8748L78.462 33.5787H78.2157V34.2603H77.9522V32.6731H78.5589ZM78.2157 33.3546L78.5057 33.3201C78.7079 33.3201 78.8842 33.2854 78.8842 33.0783C78.8842 32.8714 78.6907 32.8711 78.5238 32.8711H78.2157V33.3546Z" fill="black"/>
<path fill-rule="evenodd" clip-rule="evenodd" d="M78.5675 32.0261C78.8501 32.0261 79.1262 32.1082 79.3614 32.262C79.5964 32.4157 79.7803 32.6338 79.8892 32.8896C79.9981 33.1455 80.0272 33.4278 79.9733 33.7C79.9194 33.9723 79.7848 34.223 79.5863 34.4203C79.3877 34.6175 79.1342 34.7525 78.8576 34.8087C78.5809 34.8649 78.2932 34.84 78.0311 34.7362C77.7691 34.6325 77.5444 34.4546 77.3849 34.2257C77.2254 33.9968 77.1386 33.7263 77.1351 33.449V33.3892C77.1374 33.2068 77.176 33.0261 77.2493 32.8584C77.3225 32.6909 77.4288 32.5393 77.5617 32.412C77.6946 32.2847 77.8518 32.184 78.0243 32.1163C78.1537 32.0655 78.2902 32.0336 78.4285 32.0219L78.5675 32.0261ZM78.8404 32.2957C78.6121 32.2228 78.367 32.2181 78.1358 32.2822C77.9047 32.3464 77.6977 32.4759 77.5419 32.6554C77.3862 32.835 77.2881 33.0563 77.2604 33.2906C77.2328 33.5249 77.2767 33.7624 77.3866 33.9721C77.4964 34.1818 77.6674 34.3549 77.8775 34.4692C78.0613 34.5691 78.2683 34.6203 78.4774 34.6183L78.5675 34.6048H78.6293C78.9262 34.5848 79.2032 34.4506 79.3992 34.2308C79.5951 34.0109 79.6939 33.7236 79.6746 33.4321V33.3369C79.6564 33.1018 79.5674 32.8771 79.4189 32.6916C79.2704 32.5063 79.0688 32.3687 78.8404 32.2957Z" fill="black"/>
</g>
<defs>
<clipPath id="clip0_11388_11857">
<rect width="80" height="80" fill="white"/>
</clipPath>
</defs>
</svg>
