<svg width="80" height="80" viewBox="0 0 80 80" fill="none" xmlns="http://www.w3.org/2000/svg">
<path fill-rule="evenodd" clip-rule="evenodd" d="M77.0195 66.7899C77.5911 66.7899 77.8986 66.9817 77.8986 67.4696C77.8986 67.8907 77.6332 68.0576 77.2731 68.0956L77.9132 69.1092H77.4687L76.886 68.1128H76.5468V69.1092H76.1602V66.7899H77.0195ZM76.5468 67.7915H77.0122C77.2851 67.7915 77.5078 67.7521 77.5079 67.4367C77.5079 67.1606 77.246 67.1091 77.0195 67.1091H76.5468V67.7915Z" fill="black"/>
<path fill-rule="evenodd" clip-rule="evenodd" d="M76.9465 65.9001C78.078 65.9002 79 66.8231 79 67.9503C78.9999 69.085 78.0779 69.9999 76.9465 70C75.8145 70 74.8936 69.085 74.8935 67.9503C74.8935 66.823 75.8144 65.9001 76.9465 65.9001ZM76.9465 66.2914C76.026 66.2914 75.2796 67.0344 75.2796 67.9503C75.2797 68.8731 76.026 69.616 76.9465 69.616C77.868 69.6159 78.6128 68.8731 78.6129 67.9503C78.6129 67.0344 77.868 66.2915 76.9465 66.2914Z" fill="black"/>
<path d="M39.4037 40.7767C41.0071 40.7767 41.0075 41.9095 41.0075 45.7794C41.0075 49.6463 41.0072 50.7262 39.4037 50.7262L36.9427 50.721V40.7767H39.4037Z" fill="black"/>
<path d="M39.1611 30.3992C40.638 30.3992 41.0075 30.7074 41.0075 34.5753C41.0075 38.4444 40.638 38.6935 39.1611 38.6935L36.9427 38.6873V30.3992H39.1611Z" fill="black"/>
<path fill-rule="evenodd" clip-rule="evenodd" d="M72.889 69.9378H1V11H72.889V69.9378ZM25.7407 28.0668L25.7428 49.1583C25.7428 50.3104 24.8075 51.2769 23.6517 51.2769C22.4948 51.2769 21.5575 50.3386 21.5575 49.1865L21.5544 44.8896H17.4949V48.4503C17.4949 50.2302 19.0953 53.1155 23.6486 53.1155C28.203 53.1155 29.8044 50.9081 29.8044 48.4503V28.0668H25.7407ZM32.8847 28.0668V52.7493H41.0075C44.0537 52.7492 45.068 50.7834 45.068 49.5251V42.1267C45.068 41.0812 43.9915 39.701 42.3921 39.7009C43.9914 39.7007 45.0679 37.5226 45.068 36.2933V32.0883C45.0679 29.3555 42.5747 28.0669 41.0075 28.0668H32.8847ZM48.0241 28.0668V52.7493H60.3337V44.8896H56.27L56.2731 49.1865C56.2731 50.3386 55.3356 51.2769 54.18 51.2769C53.0251 51.2769 52.0868 50.3386 52.0868 49.1865V28.0668H48.0241ZM19.5254 37.5106C18.2252 37.5108 17.1745 38.5579 17.1745 39.8566C17.1745 41.1491 18.2252 42.2008 19.5254 42.2009C20.8218 42.2009 21.8758 41.1492 21.8758 39.8566C21.8758 38.5578 20.8218 37.5106 19.5254 37.5106ZM15.7711 28.0668L19.5254 36.6005L23.2792 28.0668H15.7711Z" fill="black"/>
</svg>
