<svg width="80" height="80" viewBox="0 0 80 80" fill="none" xmlns="http://www.w3.org/2000/svg">
<g clip-path="url(#clip0_11388_11862)">
<path d="M62.3628 38.5594C62.4023 38.5522 62.4431 38.5558 62.4806 38.5697C62.5182 38.5835 62.5512 38.6072 62.5762 38.6381C63.4961 39.8465 66.2155 43.8784 65.389 48.8166C65.0157 50.9705 63.7493 52.1919 62.3495 52.6253C61.6964 52.8358 60.9955 52.8561 60.331 52.6837C59.6665 52.5113 59.0666 52.1535 58.6034 51.6534C56.4974 49.3816 58.4829 46.4008 58.5368 46.3212C59.6299 44.6402 61.6562 42.3549 62.2028 38.7432V38.7169C62.21 38.6777 62.2293 38.6417 62.2579 38.6135C62.2865 38.5854 62.3231 38.5665 62.3628 38.5594Z" fill="black"/>
<path d="M66.1719 42.4189C66.2124 42.4072 66.2554 42.4078 66.2955 42.4206C68.6551 43.0904 70.9081 42.6307 73.4144 42.6832C73.4296 42.6819 74.969 42.6163 75.8672 43.8915C76.2779 44.4179 76.4766 45.0753 76.4249 45.7372C76.3732 46.3991 76.0749 47.0187 75.5873 47.477C74.7874 48.2518 73.5077 48.6458 71.908 48.1073C68.3619 46.9253 66.5889 43.8522 66.0423 42.7095C66.0233 42.674 66.0155 42.6337 66.0203 42.5938C66.025 42.554 66.042 42.5164 66.0688 42.4862C66.0955 42.4541 66.1315 42.4306 66.1719 42.4189Z" fill="black"/>
<path d="M3.33267 29.7467C3.36077 29.7464 3.38866 29.7516 3.41469 29.762C3.44073 29.7724 3.46446 29.7879 3.48434 29.8075C3.50419 29.8271 3.51984 29.8504 3.53043 29.876C3.54102 29.9017 3.54628 29.9293 3.54592 29.9569V36.6944C3.5455 36.7372 3.55833 36.7792 3.58263 36.8147C3.60694 36.8502 3.64165 36.8775 3.68209 36.8932C3.72256 36.9089 3.76694 36.912 3.80929 36.9023C3.85162 36.8926 3.89002 36.8705 3.91929 36.8388L7.0387 33.4241C7.05949 33.4031 7.08439 33.3865 7.11186 33.3752C7.13935 33.364 7.16892 33.3582 7.1987 33.3584H10.7581C10.7996 33.3588 10.8402 33.3713 10.8745 33.3942C10.9089 33.4172 10.9355 33.4498 10.9512 33.4877C10.9669 33.5256 10.9709 33.5672 10.9627 33.6073C10.9544 33.6474 10.9342 33.6842 10.9047 33.7131L6.97204 37.7057C6.93928 37.7407 6.91892 37.7852 6.91411 37.8326C6.9093 37.8799 6.92025 37.9277 6.94535 37.9684L11.8379 45.4282C11.8675 45.4619 11.8881 45.5024 11.8974 45.5461C11.9067 45.5897 11.9046 45.635 11.8913 45.6776C11.8724 45.7099 11.8452 45.7367 11.8124 45.7551C11.7796 45.7736 11.7424 45.7832 11.7046 45.7828H7.9586C7.92083 45.7832 7.88359 45.7736 7.8508 45.7551C7.81801 45.7367 7.79079 45.7099 7.77191 45.6776L4.51919 40.4505C4.50317 40.4225 4.48062 40.3985 4.45345 40.3806C4.42628 40.3628 4.39516 40.3514 4.36271 40.3475C4.33024 40.3437 4.29722 40.3475 4.2665 40.3586C4.23581 40.3696 4.20822 40.3876 4.18592 40.4112L3.5993 41.0285C3.568 41.0707 3.54944 41.1207 3.54592 41.1729V43.7996C3.54628 43.8273 3.54101 43.8547 3.53043 43.8804C3.51984 43.906 3.50422 43.9294 3.48434 43.949C3.46446 43.9686 3.44073 43.984 3.41469 43.9944C3.38865 44.0048 3.36078 44.0101 3.33267 44.0098H0.213141C0.185049 44.0101 0.157147 44.0048 0.131123 43.9944C0.105111 43.984 0.0814657 43.9686 0.0616035 43.949C0.0417252 43.9294 0.0259797 43.906 0.0153873 43.8804C0.00480724 43.8547 -0.000462856 43.8273 -0.000104933 43.7996V29.9569C-0.000463064 29.9293 0.00479487 29.9017 0.0153873 29.876C0.0259795 29.8504 0.0417324 29.8271 0.0616035 29.8075C0.0814779 29.7879 0.10509 29.7724 0.131123 29.762C0.157147 29.7516 0.185049 29.7464 0.213141 29.7467H3.33267Z" fill="black"/>
<path fill-rule="evenodd" clip-rule="evenodd" d="M15.2907 33.0695C16.1397 33.0623 16.982 33.2185 17.7702 33.5292C19.9032 34.4222 20.9697 36.458 20.9697 38.6251C20.9697 42.1448 18.5835 44.2855 15.2907 44.2855C11.7713 44.2855 9.63826 42.0659 9.63826 38.5856C9.63828 35.3153 11.8513 33.0695 15.2907 33.0695ZM16.2639 35.9064C15.7173 35.6043 14.8508 35.5781 14.2909 35.9327C13.4244 36.4843 13.1844 37.6006 13.1844 38.6118C13.1844 40.1616 13.7176 41.6719 15.304 41.6719C16.0372 41.6719 16.5705 41.3962 16.9171 40.8445C17.2637 40.2929 17.437 39.5443 17.437 38.6118C17.437 37.6006 17.157 36.4449 16.2639 35.9064Z" fill="black"/>
<path fill-rule="evenodd" clip-rule="evenodd" d="M27.4086 33.0827C28.2575 33.0624 29.1016 33.2144 29.8883 33.5292C32.0079 34.4222 33.0877 36.4449 33.0877 38.6251C33.0877 42.1448 30.7014 44.2855 27.4086 44.2855C25.8756 44.2855 24.3959 43.8652 23.3161 42.7883C21.5963 41.0941 21.423 38.1916 22.1562 36.3398C23.0094 34.1596 25.0357 33.0827 27.4086 33.0827ZM28.4084 35.9064C27.8352 35.6043 26.9821 35.5781 26.4222 35.9327C25.8623 36.3004 25.5423 36.9045 25.4224 37.5481C25.2357 38.4937 25.2757 39.7808 25.7556 40.6738C25.9114 40.9668 26.1409 41.2155 26.4222 41.3962C26.7288 41.5869 27.0863 41.6829 27.4487 41.6719C28.1819 41.6719 28.7151 41.3961 29.0617 40.8445C29.4083 40.2929 29.5817 39.5443 29.5817 38.6118C29.5817 37.6006 29.3016 36.4449 28.4084 35.9064Z" fill="black"/>
<path fill-rule="evenodd" clip-rule="evenodd" d="M53.9509 33.0958C57.8436 33.0958 60.0033 36.0378 59.4833 39.6757C59.4763 39.7265 59.4508 39.7732 59.4116 39.8069C59.3724 39.8407 59.322 39.8594 59.27 39.8595H52.1512C52.1179 39.8602 52.0851 39.8686 52.0555 39.8839C52.026 39.8993 52.0005 39.9213 51.9811 39.948C51.9617 39.9748 51.9488 40.0057 51.9436 40.0382C51.9384 40.0707 51.9411 40.1041 51.9513 40.1354C52.1246 40.6607 52.4312 41.1466 52.9244 41.4356C53.4577 41.7508 54.3242 41.7771 54.8841 41.4225C55.1255 41.2656 55.3301 41.0595 55.484 40.8183C55.5029 40.79 55.5286 40.7668 55.5589 40.7508C55.5891 40.7347 55.6229 40.7265 55.6573 40.7264H58.9367C58.9717 40.7264 59.0062 40.7347 59.0372 40.7508C59.0681 40.7669 59.0947 40.7902 59.1144 40.8186C59.1341 40.8471 59.1464 40.88 59.1503 40.9143C59.1542 40.9486 59.1495 40.9832 59.1367 41.0153C58.2701 43.1429 56.1905 44.2593 53.9242 44.2593C50.3249 44.2593 48.1786 41.8821 48.1786 38.6644C48.1786 35.1841 50.4582 33.0958 53.9509 33.0958ZM53.8709 35.6831C52.8577 35.6831 52.2712 36.2085 51.978 37.1015C51.9665 37.1328 51.9629 37.1665 51.9675 37.1995C51.9722 37.2325 51.985 37.2638 52.0046 37.2909C52.0243 37.318 52.0502 37.3402 52.0804 37.3552C52.1106 37.3702 52.1441 37.3778 52.1779 37.3774H55.5373C55.5711 37.3778 55.6046 37.3702 55.6348 37.3552C55.6649 37.3402 55.6909 37.318 55.7105 37.2909C55.7302 37.2638 55.743 37.2325 55.7476 37.1995C55.7523 37.1665 55.7486 37.1328 55.7372 37.1015C55.4306 36.2216 54.804 35.6831 53.8709 35.6831Z" fill="black"/>
<path d="M42.6328 33.3584C42.6609 33.3581 42.6888 33.3633 42.7148 33.3737C42.7408 33.3841 42.7646 33.3997 42.7844 33.4192C42.8043 33.4388 42.8201 33.4621 42.8307 33.4877C42.8412 33.5134 42.8465 33.541 42.8461 33.5687C42.8328 35.8537 42.8994 35.7881 42.7928 35.8932L37.9136 41.1729C37.8859 41.2034 37.8676 41.2413 37.8612 41.2818C37.8547 41.3223 37.8603 41.3637 37.8772 41.4012C37.8941 41.4386 37.9216 41.4705 37.9565 41.4929C37.9913 41.5153 38.0319 41.5273 38.0735 41.5275H42.8461C42.8742 41.5272 42.9021 41.5323 42.9282 41.5428C42.9542 41.5532 42.9778 41.5687 42.9977 41.5883C43.0176 41.6079 43.0333 41.6311 43.0439 41.6568C43.0545 41.6824 43.0597 41.7099 43.0594 41.7376V43.7996C43.0597 43.8273 43.0545 43.8547 43.0439 43.8804C43.0333 43.906 43.0176 43.9294 42.9977 43.949C42.9778 43.9686 42.9542 43.984 42.9282 43.9944C42.9021 44.0048 42.8742 44.0101 42.8461 44.0098H33.5409C33.5128 44.0101 33.4849 44.0048 33.4589 43.9944C33.4329 43.984 33.4092 43.9686 33.3894 43.949C33.3695 43.9294 33.3538 43.906 33.3432 43.8804C33.3326 43.8547 33.3273 43.8273 33.3277 43.7996C33.341 41.4487 33.2877 41.5275 33.3811 41.4225L38.1803 36.1954C38.208 36.1648 38.2261 36.127 38.2326 36.0865C38.239 36.046 38.2335 36.0045 38.2166 35.9671C38.1997 35.9296 38.1721 35.8978 38.1373 35.8754C38.1025 35.853 38.0618 35.8409 38.0203 35.8407H33.7409C33.7128 35.8411 33.6849 35.8359 33.6589 35.8255C33.6328 35.815 33.6092 35.7995 33.5894 35.7799C33.5695 35.7604 33.5537 35.7371 33.5431 35.7114C33.5325 35.6858 33.5273 35.6582 33.5276 35.6305V33.5687C33.5273 33.541 33.5325 33.5134 33.5431 33.4877C33.5537 33.4621 33.5695 33.4388 33.5894 33.4192C33.6092 33.3997 33.6328 33.3841 33.6589 33.3737C33.6849 33.3633 33.7128 33.3581 33.7409 33.3584H42.6328Z" fill="black"/>
<path d="M47.1653 33.3584C47.1934 33.3581 47.2213 33.3633 47.2474 33.3737C47.2734 33.3841 47.2971 33.3997 47.317 33.4192C47.3369 33.4388 47.3526 33.4621 47.3632 33.4877C47.3738 33.5134 47.3791 33.541 47.3787 33.5687V43.7996C47.3791 43.8273 47.3738 43.8547 47.3632 43.8804C47.3526 43.906 47.3369 43.9294 47.317 43.949C47.2971 43.9686 47.2734 43.984 47.2474 43.9944C47.2213 44.0048 47.1934 44.0101 47.1653 44.0098H44.0459C44.0178 44.0101 43.9898 44.0048 43.9638 43.9944C43.9378 43.984 43.9141 43.9686 43.8943 43.949C43.8744 43.9294 43.8587 43.906 43.8481 43.8804C43.8375 43.8547 43.8322 43.8273 43.8326 43.7996V33.5687C43.8322 33.541 43.8375 33.5134 43.8481 33.4877C43.8587 33.4621 43.8744 33.4388 43.8943 33.4192C43.9141 33.3997 43.9378 33.3841 43.9638 33.3737C43.9898 33.3633 44.0178 33.3581 44.0459 33.3584H47.1653Z" fill="black"/>
<path d="M70.2948 34.2647C72.3611 32.1765 75.8406 34.3304 74.8941 37.049C74.6789 37.6948 74.3031 38.2772 73.8009 38.7432C73.2676 39.2554 70.7215 41.5406 66.3756 41.3699C66.3345 41.3695 66.2945 41.3567 66.2611 41.3332C66.2278 41.3097 66.2025 41.2766 66.1889 41.2385C66.1754 41.2011 66.172 41.1608 66.179 41.1217C66.186 41.0826 66.2032 41.046 66.2288 41.0154C68.1085 39.0191 68.5618 35.9195 70.2948 34.2647Z" fill="black"/>
<path d="M62.6694 28C63.8788 28 64.8497 28.8614 64.8558 28.8668C65.4722 29.4089 65.9399 30.0956 66.2156 30.8631C67.4553 34.1859 66.7222 37.7451 65.509 40.1748C65.4903 40.211 65.4616 40.2412 65.4262 40.2621C65.3909 40.283 65.3503 40.2936 65.3091 40.2929C65.268 40.2925 65.228 40.2797 65.1946 40.2562C65.1613 40.2327 65.136 40.1997 65.1224 40.1616C63.8426 37.1409 60.5631 35.1315 59.5633 32.4654C58.6834 30.3247 60.2965 28 62.6694 28Z" fill="black"/>
<path d="M78.9334 34.9608L79.44 33.5687H79.9998V35.5124H79.64V33.9495L79.0934 35.5124H78.7735L78.2268 33.9495V35.5124H77.8669V33.5687H78.4268L78.9334 34.9608Z" fill="black"/>
<path d="M77.5336 33.8838H76.8937V35.4992H76.5072V33.8838H75.8539V33.5554H77.5336V33.8838Z" fill="black"/>
<path d="M47.1653 29.7599C47.1934 29.7596 47.2213 29.7648 47.2474 29.7752C47.2734 29.7856 47.2971 29.801 47.317 29.8206C47.3369 29.8402 47.3526 29.8636 47.3632 29.8892C47.3738 29.9149 47.3791 29.9424 47.3787 29.97V32.3734C47.3791 32.4011 47.3738 32.4286 47.3632 32.4542C47.3526 32.4799 47.3369 32.5033 47.317 32.5229C47.2971 32.5424 47.2734 32.5578 47.2474 32.5683C47.2213 32.5787 47.1934 32.584 47.1653 32.5836H44.0459C44.0178 32.584 43.9898 32.5787 43.9638 32.5683C43.9378 32.5578 43.9141 32.5424 43.8943 32.5229C43.8744 32.5033 43.8587 32.4799 43.8481 32.4542C43.8375 32.4286 43.8322 32.4011 43.8326 32.3734V29.97C43.8322 29.9423 43.8375 29.9149 43.8481 29.8892C43.8587 29.8636 43.8744 29.8402 43.8943 29.8206C43.9141 29.801 43.9378 29.7856 43.9638 29.7752C43.9898 29.7648 44.0178 29.7596 44.0459 29.7599H47.1653Z" fill="black"/>
</g>
<defs>
<clipPath id="clip0_11388_11862">
<rect width="80" height="80" fill="white"/>
</clipPath>
</defs>
</svg>
