<svg width="80" height="80" viewBox="0 0 80 80" fill="none" xmlns="http://www.w3.org/2000/svg">
<path d="M34.416 36V37.6475H34.1494C34.1494 37.4381 34.0009 37.3653 33.6895 37.3652H30.0693V38.8496H32.3486C32.6947 38.8496 32.8427 38.8182 32.8428 38.6123H33.1123V40.1836H32.8154C32.8747 39.9776 32.6221 39.9482 32.2363 39.9482H30.0713V41.6973H33.8643C34.1015 41.6971 34.2793 41.5784 34.2793 41.4004H34.5469V43.0039H34.2793C34.2793 42.8259 34.1032 42.7959 33.8643 42.7959H28.4219V42.5283C28.4513 42.529 28.4805 42.5236 28.5078 42.5127C28.5351 42.5017 28.5602 42.4857 28.5811 42.4648C28.6018 42.444 28.618 42.4189 28.6289 42.3916C28.6398 42.3644 28.6452 42.335 28.6445 42.3057V36.7568C28.6452 36.7274 28.6398 36.6982 28.6289 36.6709C28.618 36.6436 28.6018 36.6184 28.5811 36.5977C28.5603 36.5769 28.5351 36.5607 28.5078 36.5498C28.4806 36.5389 28.4512 36.5335 28.4219 36.5342V36.2676H33.6855C33.9956 36.2676 34.1455 36.1484 34.1455 36H34.416Z" fill="black"/>
<path d="M73.2627 36L73.2695 37.6475H73.002C73.002 37.438 72.8556 37.3652 72.5439 37.3652H68.916V38.8496H71.1982C71.5428 38.8496 71.6933 38.8182 71.6934 38.6123H71.96V40.1836H71.6631C71.7224 39.9775 71.4706 39.9483 71.085 39.9482H68.918V41.6973H72.7109C72.9482 41.6971 73.126 41.5784 73.126 41.4004H73.3936V43.0039H73.126C73.126 42.8259 72.9482 42.7959 72.7109 42.7959H67.2686V42.5283C67.298 42.529 67.3272 42.5236 67.3545 42.5127C67.3818 42.5018 67.4068 42.4856 67.4277 42.4648C67.4487 42.4441 67.4654 42.4189 67.4766 42.3916C67.4876 42.3644 67.4936 42.335 67.4932 42.3057V36.7568C67.4936 36.7274 67.4877 36.6982 67.4766 36.6709C67.4654 36.6436 67.4487 36.6184 67.4277 36.5977C67.4069 36.577 67.3818 36.5607 67.3545 36.5498C67.3272 36.539 67.2979 36.5335 67.2686 36.5342V36.2676H72.5371C72.8471 36.2676 72.9961 36.1484 72.9961 36H73.2627Z" fill="black"/>
<path d="M22.377 36.2676V36.5273C22.1545 36.5273 22.0353 36.6018 22.0352 36.75V41.6973H26.042C26.2778 41.6973 26.458 41.5787 26.458 41.3857H26.7256V42.9883H26.4658C26.4655 42.8254 26.288 42.7959 26.0508 42.7959H20.2344V42.5283C20.4999 42.5283 20.6201 42.4541 20.6201 42.3057V36.7568C20.6201 36.6085 20.5015 36.5342 20.2344 36.5342H20.2324V36.2676H22.377Z" fill="black"/>
<path fill-rule="evenodd" clip-rule="evenodd" d="M14.7119 36.1797C16.8771 36.1797 18.6582 37.2635 18.6582 39.5342C18.6581 41.8047 16.8803 42.8877 14.7119 42.8877C12.5435 42.8877 10.7638 41.8047 10.7637 39.5342C10.7637 37.2634 12.5434 36.1797 14.7119 36.1797ZM14.7119 37.2764C13.4356 37.2764 12.1875 38.1174 12.1875 39.5322C12.1875 40.9471 13.4356 41.7881 14.7119 41.7881C15.9883 41.7881 17.2334 40.9421 17.2334 39.5322C17.2334 38.1223 15.9866 37.2764 14.7119 37.2764Z" fill="black"/>
<path d="M39.1953 36.1748C41.0191 36.1748 41.8206 36.8867 42.1025 36.8867C42.2221 36.8822 42.3376 36.8413 42.4326 36.7686L42.5977 36.9336L41.8555 38.3281L41.5879 38.2393C41.5891 38.1713 41.5754 38.1036 41.5469 38.042C41.5183 37.9804 41.4754 37.9258 41.4229 37.8828C41.0285 37.5416 40.138 37.2744 39.1143 37.2744C38.3278 37.2744 37.63 37.4693 37.6299 38.0166C37.6299 39.2929 42.5552 38.1059 42.5557 40.7324C42.5557 42.4538 40.6502 42.8847 39.3145 42.8848C37.9787 42.8848 36.5399 42.1729 36.375 42.1729C36.3405 42.172 36.3063 42.1789 36.2754 42.1943C36.2443 42.2099 36.2173 42.2334 36.1973 42.2617L35.9893 42.1133L36.6719 40.4521L36.9521 40.5254C36.9521 40.5996 36.9375 40.7051 36.9375 40.7939C36.9378 41.3826 38.7042 41.7832 39.2979 41.7832C39.8323 41.7832 41.1227 41.6627 41.123 40.9062C41.123 39.6167 36.1973 40.774 36.1973 38.251C36.1973 36.9993 37.3253 36.1748 39.1953 36.1748Z" fill="black"/>
<path d="M51.3721 36.2656V36.5322C51.1754 36.6137 50.9945 36.7298 50.8379 36.874L48.3643 38.8779L50.7119 41.7861C50.9493 42.0828 51.2298 42.4539 51.5117 42.5283V42.8027H49.3174V42.5352C49.4227 42.5351 49.4823 42.5252 49.4824 42.4463C49.4824 42.3671 49.4046 42.248 49.1523 41.9512L47.3252 39.7256L46.167 40.6436V42.3057C46.167 42.454 46.3009 42.5283 46.4492 42.5283V42.7959H44.5068V42.5283C44.5375 42.5317 44.5684 42.5283 44.5977 42.5186C44.627 42.5088 44.6542 42.4928 44.6768 42.4717C44.6992 42.4506 44.7169 42.425 44.7285 42.3965C44.7402 42.3678 44.7455 42.3366 44.7441 42.3057V36.7568C44.7455 36.7261 44.7401 36.6955 44.7285 36.667C44.7169 36.6384 44.6993 36.612 44.6768 36.5908C44.6542 36.5697 44.6269 36.5537 44.5977 36.5439C44.5684 36.5342 44.5374 36.5308 44.5068 36.5342V36.2676H46.4492V36.5342C46.3009 36.5342 46.167 36.6085 46.167 36.7568V39.1826C47.5159 38.0695 49.165 36.8076 49.165 36.6592C49.1646 36.5539 49.015 36.4951 48.9277 36.4951V36.2656H51.3721Z" fill="black"/>
<path d="M3.0625 36.2676V36.5342C3.04388 36.5324 3.02462 36.5342 3.00684 36.54C2.98906 36.5459 2.97297 36.5559 2.95898 36.5684C2.94493 36.5809 2.93367 36.5962 2.92578 36.6133C2.91789 36.6304 2.91345 36.6491 2.91309 36.668C2.95619 36.8223 3.0259 36.9683 3.11914 37.0986L4.93262 40.4375L6.75879 37.1113C6.85273 36.9743 6.92777 36.8252 6.98145 36.668C6.98304 36.6513 6.98079 36.6341 6.97559 36.6182C6.97039 36.6024 6.96219 36.5876 6.95117 36.5752C6.94012 36.5628 6.92621 36.5529 6.91113 36.5459C6.89591 36.5389 6.87907 36.5346 6.8623 36.5342V36.2676H8.95996V36.5342C8.93327 36.5314 8.90635 36.5346 8.88086 36.543C8.85535 36.5514 8.83131 36.5648 8.81152 36.583C8.79178 36.6012 8.77616 36.6237 8.76562 36.6484C8.75509 36.6732 8.75036 36.7006 8.75098 36.7275V42.3057C8.74917 42.3621 8.76939 42.4174 8.80762 42.459C8.84583 42.5005 8.89871 42.5253 8.95508 42.5283V42.7959H7.2334V42.5283C7.42634 42.5283 7.53066 42.4541 7.50098 42.3057V38.1436H7.4707L4.94824 42.7959H4.82715L2.43652 38.1436H2.42188V42.3057C2.42188 42.4541 2.52541 42.5283 2.67383 42.5283V42.7959L2.67676 42.8008H1V42.5332C1.10383 42.5184 1.17769 42.489 1.17773 42.2666V36.833C1.17773 36.5642 1.13357 36.5342 1 36.5342V36.2676H3.0625Z" fill="black"/>
<path d="M59.6826 36.2656V36.5322C59.5941 36.547 59.5792 36.5623 59.5791 36.6064C59.5791 36.6774 59.6997 36.7852 59.9092 37.0078L63.4658 40.7822V36.7568C63.4658 36.6085 63.3487 36.5342 63.1689 36.5342V36.2676H64.9834V36.5342C64.835 36.5342 64.7159 36.6085 64.7158 36.7568V42.3076C64.7158 42.456 64.835 42.5303 64.9834 42.5303V42.7979H63.0537V42.5303C63.1131 42.5303 63.1572 42.5302 63.1572 42.4561C63.1572 42.3819 62.9367 42.1592 62.6992 41.9053L59.0186 37.9883V42.3057C59.0186 42.4541 59.1372 42.5283 59.3301 42.5283V42.7939H57.5059V42.5273C57.6541 42.5273 57.7732 42.4529 57.7734 42.3047V36.7549C57.7732 36.6067 57.6541 36.5322 57.5059 36.5322V36.2656H59.6826Z" fill="black"/>
<path d="M55.1016 36.2676V36.5342C54.8199 36.5343 54.6866 36.6085 54.6865 36.7568V42.3057C54.6865 42.454 54.8199 42.5282 55.1016 42.5283V42.7959H52.8457V42.5283C53.1574 42.5283 53.2617 42.4541 53.2617 42.3057V36.7568C53.2617 36.6085 53.159 36.5342 52.8457 36.5342V36.2676H55.1016Z" fill="black"/>
<path fill-rule="evenodd" clip-rule="evenodd" d="M76.9424 37.3242C77.3512 37.3243 77.6807 37.5224 77.6807 37.9609C77.6799 38.1158 77.628 38.2662 77.5332 38.3887C77.4384 38.5111 77.3059 38.5992 77.1562 38.6387L77.5352 39.1758C77.6682 39.3647 77.8121 39.5463 77.9658 39.7188V39.7959H77.417C77.2059 39.7959 77.0209 39.2012 76.7109 38.7197H76.4951V39.3789C76.4951 39.6015 76.4853 39.6362 76.7871 39.6543V39.793H75.6523V39.6543C75.9442 39.6362 75.9443 39.6032 75.9443 39.3789V37.7266C75.9443 37.5023 75.9442 37.4693 75.6523 37.4512L75.6592 37.4434V37.3242H76.9424ZM76.4951 37.4844V38.5693H76.7012C77.0029 38.5693 77.0888 38.2758 77.0889 37.9922C77.0889 37.6129 76.9352 37.4844 76.7109 37.4844H76.4951Z" fill="black"/>
<path fill-rule="evenodd" clip-rule="evenodd" d="M76.7363 36.2891C78.0355 36.2893 79.0048 37.3078 79.0049 38.6104C79.0049 39.913 78.0405 40.9187 76.7412 40.9189H76.7363C76.4347 40.9217 76.1352 40.8635 75.8564 40.748C75.5777 40.6326 75.3246 40.4624 75.1133 40.2471C74.902 40.0318 74.7362 39.7759 74.626 39.4951C74.5158 39.2143 74.4633 38.9139 74.4717 38.6123C74.4717 37.3046 75.4369 36.2891 76.7363 36.2891ZM76.7363 36.6592C75.7207 36.6592 74.9719 37.5466 74.9717 38.6133C74.9717 39.6136 75.6295 40.4477 76.5488 40.5479L76.7412 40.5576C77.7568 40.5574 78.5049 39.69 78.5049 38.6133C78.5047 37.5368 77.7518 36.6595 76.7363 36.6592Z" fill="black"/>
</svg>
