<svg width="80" height="80" viewBox="0 0 80 80" fill="none" xmlns="http://www.w3.org/2000/svg">
<path fill-rule="evenodd" clip-rule="evenodd" d="M78.8575 56.9255C79.4288 56.9255 80 57.3804 80 58.0628C80 58.7451 79.4287 59.2 78.8575 59.2001C78.1721 59.2001 77.7151 58.7451 77.7151 58.0628C77.7151 57.3804 78.2863 56.9255 78.8575 56.9255ZM78.8575 57.0393C78.2863 57.0393 77.9436 57.4942 77.9436 57.9491C77.9436 58.3202 78.1383 58.5942 78.4006 58.74V57.3804H78.8575C79.2003 57.3804 79.3145 57.4942 79.3145 57.7216C79.3145 57.949 79.2002 58.0628 78.9718 58.0628L79.3145 58.6314H79.2003L78.8575 58.0628H78.629V58.7451H78.41C78.5473 58.8194 78.7024 58.8589 78.8575 58.8589C79.4287 58.9726 79.7715 58.6314 79.7715 58.0628C79.7715 57.4942 79.4288 57.0393 78.8575 57.0393ZM78.629 57.9491H78.8575C79.086 57.9491 79.2002 57.8353 79.2003 57.7216C79.2003 57.6079 79.086 57.4942 78.8575 57.4942H78.629V57.9491Z" fill="black"/>
<path d="M51.6764 40.6088V42.3146H46.3069C46.1926 42.3146 46.0784 42.4284 46.0784 42.5421V44.5892H51.2194V46.2951H46.0784V48.4558C46.0784 48.5696 46.1926 48.6833 46.3069 48.6833H51.6764V50.3893H46.0784C44.9359 50.3893 44.1362 49.4794 44.1362 48.4558V42.5421C44.1362 41.5186 44.9359 40.6088 46.0784 40.6088H51.6764Z" fill="black"/>
<path d="M59.1024 40.6088C60.1306 40.6088 61.0446 41.5186 61.0446 42.5421V44.3617C61.0446 45.3853 60.2449 46.1813 59.3309 46.2951L61.5016 50.3893H59.3309L57.2745 46.2951H54.8753L55.5608 44.8166C55.675 44.7029 55.7893 44.5892 55.9035 44.5892H58.8739C58.9882 44.5892 59.1024 44.4754 59.1024 44.3617V42.5421C59.1024 42.4284 58.9882 42.3146 58.8739 42.3146H54.8753C54.7611 42.3147 54.6468 42.4284 54.6468 42.5421V50.3893H52.7046V42.5421C52.7047 41.5186 53.5044 40.6088 54.5326 40.6088H59.1024Z" fill="black"/>
<path d="M68.4708 40.6088C69.6132 40.6088 70.4129 41.5186 70.4129 42.5421V50.3893H68.585V46.2951H64.472L65.0432 44.8166C65.1575 44.7029 65.2719 44.5892 65.3861 44.5892H68.4708V42.5421C68.4707 42.4284 68.3565 42.3147 68.2423 42.3146H64.3577C64.2435 42.3147 64.1293 42.4284 64.1292 42.5421V50.3893H62.1871V42.5421C62.1871 41.5186 63.1011 40.6088 64.1292 40.6088H68.4708Z" fill="black"/>
<path d="M45.3929 29.6911C45.7356 29.6911 45.9641 29.8048 46.0784 30.0322L49.7342 35.7185V29.6911H51.6764V38.6754C51.6764 39.0166 51.4479 39.3578 50.9909 39.3578H50.4197C50.077 39.3578 49.8485 39.244 49.7342 39.0166L46.0784 33.3303V39.3578H44.1362V30.3734C44.1362 29.9185 44.4789 29.6911 44.8217 29.6911H45.3929Z" fill="black"/>
<path d="M59.9021 29.5773V31.2832H54.7611C54.6468 31.2832 54.5326 31.397 54.5326 31.5107V33.5577H59.5594V35.2636H54.6468V37.4244C54.6468 37.5381 54.7611 37.6519 54.8753 37.6519H59.9021V39.3578H54.5326C53.5044 39.3578 52.7046 38.5617 52.5904 37.4244V31.5107C52.5904 30.4872 53.5044 29.5774 54.5326 29.5773H59.9021Z" fill="black"/>
<path d="M62.9868 29.5773V37.4244C62.9868 37.5381 63.1011 37.6518 63.2153 37.6519H64.8147V29.5773H66.7571V37.6519H68.3565C68.4707 37.6518 68.585 37.5381 68.585 37.4244V29.5773H70.5272V37.4244C70.5272 38.4479 69.6132 39.3577 68.585 39.3578H62.9868C61.8444 39.3577 61.0446 38.4479 61.0446 37.4244V29.5773H62.9868Z" fill="black"/>
<path d="M33.1654 42.1821C33.1654 42.1821 28.2529 44.3429 26.9961 44.9115C25.3967 45.5939 24.0257 45.4802 23.5687 44.3429C23.3402 43.7743 22.312 43.888 20.3698 44.4566L10.6588 47.2998L9.97329 44.0017C9.97329 44.0017 17.7419 42.5233 19.57 42.2958C21.3979 41.9546 22.5405 42.1821 22.9975 43.3194C23.1117 43.6605 23.226 43.7743 23.226 43.7743L32.3657 41.1586L33.1654 42.1821Z" fill="black"/>
<path d="M11.4585 31.833C11.4598 31.8375 11.8012 32.9707 11.8012 33.1977C11.8012 32.5154 12.3725 32.0605 13.1722 32.2879C13.9719 32.4017 15.1143 32.6291 15.5713 32.7428C17.742 33.1977 18.7702 33.5389 19.57 35.3585L22.0835 41.2723C21.6265 40.9311 20.9409 40.8174 19.113 41.0448H18.656C18.6512 41.0313 17.3984 37.5174 16.9423 36.4958C16.5996 35.4723 16.1426 34.7899 14.8859 34.6762C14.5429 34.6761 12.2582 34.335 12.2582 34.335L14.3146 41.6135L9.63055 42.1821L7.34563 31.037L11.4585 31.833Z" fill="black"/>
<path d="M31.7945 40.0213L25.1682 41.1586L24.2542 39.3389L31.109 38.884L31.7945 40.0213Z" fill="black"/>
<path d="M22.5405 35.8134C22.5637 35.8162 28.368 36.4958 28.8241 36.4958C29.5095 36.6095 29.8523 36.837 30.0808 37.1782C30.195 37.2919 30.3093 37.6331 30.3093 37.6331L23.3402 37.5193L22.5405 35.8134Z" fill="black"/>
<path fill-rule="evenodd" clip-rule="evenodd" d="M76.5506 59.1742H0V20.8H76.5506V59.1742ZM38.0332 58.1782H75.3887V21.8763H38.0332V58.1782ZM5.74618 28.9899C4.60372 28.7624 3.804 29.4448 3.91825 30.582C4.03249 30.4683 6.54581 49.005 6.66015 50.0292C6.7744 51.0527 7.80261 51.5076 8.83083 51.1664C9.85904 50.8253 17.8561 47.641 19.2272 47.186C20.9409 46.5037 21.855 46.39 22.1978 47.186C22.6548 48.437 24.2542 48.5508 26.0821 47.5272C27.6817 46.6173 34.5364 42.637 34.5364 42.637C34.5302 42.6274 31.3372 37.6327 30.9947 37.1782C30.5377 36.3821 29.8522 35.8134 28.4813 35.586C27.5673 35.4723 20.1412 34.1076 20.1412 34.1076C19.6842 33.1977 18.5417 32.1742 16.7138 31.7193L5.74618 28.9899Z" fill="black"/>
</svg>
