<svg width="80" height="80" viewBox="0 0 80 80" fill="none" xmlns="http://www.w3.org/2000/svg">
<path d="M78.4468 26.0439C79.0883 25.8816 79.1833 26.2025 78.6724 26.46C78.5887 26.4963 25.5391 49.5348 20.7349 51.4541C17.8795 52.5947 14.2362 54.0762 10.565 54.0723C8.05409 54.0683 5.52699 53.3708 3.23786 51.3906C1.64589 50.0164 0.980749 48.2022 1.00055 46.123C1.05223 40.5983 5.91556 33.2084 10.9927 27.248C9.55907 30.1233 8.93724 32.5671 8.92536 34.583C8.89385 39.7591 12.8347 42.2181 17.2584 42.1904C18.3915 42.1819 19.5188 42.0214 20.6089 41.7119C20.7564 41.672 78.1897 26.1072 78.4468 26.0439Z" fill="black"/>
</svg>
