<svg width="80" height="80" viewBox="0 0 80 80" fill="none" xmlns="http://www.w3.org/2000/svg">
<path d="M15.2325 32.8574C18.6626 32.9717 20.5811 33.2002 21.6858 33.6001C23.7206 34.4001 24.186 36.4571 24.2441 38.2285C24.2441 38.5714 24.302 39.2574 24.302 40.0003C24.302 40.743 24.2441 41.4287 24.2441 41.7715C24.1278 43.5429 23.7206 45.657 21.6858 46.3998C20.3485 46.8569 17.7905 47.1431 12.9069 47.1431H12.849V43.6571C12.849 43.4857 12.9653 43.3714 13.1397 43.3714H17.6745C18.1395 43.3713 18.5465 42.9714 18.5466 42.4573V37.4858C18.5466 37.0287 18.1395 36.6287 17.6745 36.6286H13.1397C12.9653 36.6286 12.849 36.5143 12.849 36.3429V32.8574H15.2325Z" fill="black"/>
<path d="M11.5698 36.2285C11.5698 36.3999 11.4535 36.5142 11.2791 36.5142H6.80226C6.27908 36.5142 5.87237 36.9141 5.87225 37.4283V42.5142C5.87225 42.9714 6.279 43.3714 6.80226 43.3714H11.2791C11.4535 43.3714 11.5698 43.4857 11.5698 43.6571V47.0856H9.18575C5.7557 46.9714 3.83712 46.7429 2.73249 46.3429C0.697606 45.6 0.232263 43.4854 0.174123 41.714C0.174098 41.3711 0.116211 40.6855 0.116211 39.9428C0.116211 39.2001 0.174098 38.5145 0.174123 38.1716C0.290402 36.4001 0.697606 34.2855 2.73249 33.5427C4.06969 33.0855 6.6278 32.7999 11.5113 32.7999H11.5698V36.2285Z" fill="black"/>
<path d="M57.3837 38.1141H47.6742C47.3255 38.1142 47.0929 38.3999 47.0928 38.6855V41.6001C47.093 41.9428 47.3837 42.1715 47.6742 42.1716H54.0696V40.9143H50.8719L52.1511 39.714C52.2673 39.5998 52.4418 39.5427 52.6161 39.5427H57.3257V44.3998H50.5812C47.4999 44.3998 45.9883 44.2285 45.1744 43.9428C43.9535 43.4857 43.7211 42.2286 43.6629 41.2C43.6629 40.9715 43.6045 40.5141 43.6045 40.1141C43.6045 39.7142 43.6629 39.2571 43.6629 39.0856C43.7211 38.0571 43.9535 36.8001 45.1744 36.3429C45.9883 36 47.4999 35.8859 50.5812 35.8859H57.3837V38.1141Z" fill="black"/>
<path fill-rule="evenodd" clip-rule="evenodd" d="M71.1044 35.8859C74.1276 35.8859 75.6393 36.0572 76.4533 36.3429C77.6161 36.7429 77.9069 38.0001 78.0232 39.0287V40.1141C78.0232 40.5712 77.9653 41.0286 77.9653 41.2C77.9071 42.2286 77.6742 43.4857 76.4533 43.9428C75.6975 44.2285 74.1275 44.3998 71.1044 44.3998H70.5814C67.5004 44.3998 65.9886 44.2284 65.1746 43.9428C63.9537 43.4857 63.7208 42.2286 63.6626 41.2C63.6626 40.9715 63.6047 40.5141 63.6047 40.1141C63.6047 39.7142 63.6626 39.2571 63.6626 39.0856C63.7207 38.0571 63.9536 36.8 65.1746 36.3429C65.9886 36.0572 67.5584 35.8859 70.5814 35.8859H71.1044ZM67.616 38.0572C67.2673 38.0573 67.0346 38.3429 67.0346 38.6286V41.5427C67.0346 41.8855 67.3253 42.114 67.616 42.1141H74.0113C74.302 42.1141 74.5346 41.8855 74.5927 41.5427V38.6286C74.5927 38.2858 74.302 38.0572 74.0113 38.0572H67.616Z" fill="black"/>
<path fill-rule="evenodd" clip-rule="evenodd" d="M35.3485 35.8859C38.4299 35.8859 39.942 36.0572 40.756 36.3429C40.9303 36.4001 41.1046 36.5144 41.2789 36.6286C41.9765 37.2572 42.1511 38.2287 42.2674 39.0287V40.0572C42.2674 40.5141 42.2095 40.971 42.2095 41.1426C42.1513 42.1711 41.9184 43.4287 40.6975 43.8859C39.8835 44.1715 38.3137 44.3429 35.2906 44.3429H34.7671C31.7444 44.3429 30.2328 44.1715 29.4188 43.8859C29.3025 43.8287 29.1859 43.7711 29.0696 43.714C28.1977 43.1426 28.0234 42.1142 27.9653 41.2V39.0856C28.0234 38.0571 28.2558 36.8 29.4767 36.3429C30.2906 36.0572 31.8603 35.8859 34.8835 35.8859H35.3485ZM31.8602 38.0572C31.5114 38.0573 31.2788 38.3429 31.2788 38.6286V41.5427C31.2788 41.8855 31.5695 42.114 31.8602 42.1141H38.2555C38.6044 42.1141 38.8373 41.8855 38.8954 41.5427V38.6286C38.8954 38.2858 38.6046 38.0573 38.314 38.0572H31.8602Z" fill="black"/>
<path d="M62.1512 44.3429H58.8371V35.8859H62.1512V44.3429Z" fill="black"/>
<path fill-rule="evenodd" clip-rule="evenodd" d="M79.0117 34.6855C79.1279 34.6855 79.2442 34.6859 79.3024 34.743C79.3605 34.8001 79.4184 34.8572 79.3603 34.9143C79.3603 35.0285 79.3022 35.0854 79.186 35.1426C79.2441 35.1426 79.3022 35.2571 79.3603 35.3714C79.3603 35.4285 79.3606 35.543 79.4188 35.6001H79.2439C79.1858 35.543 79.186 35.4285 79.186 35.3714C79.186 35.2571 79.1279 35.2001 79.0117 35.2H78.8953L78.9532 35.5427H78.7789V34.6855H79.0117ZM78.9532 35.0856H79.0696C79.1858 35.0856 79.3023 35.0286 79.3024 34.9143C79.3024 34.8 79.244 34.743 79.0696 34.743H78.9532V35.0856Z" fill="black"/>
<path fill-rule="evenodd" clip-rule="evenodd" d="M79.1281 34.286C79.593 34.2861 79.9417 34.6286 79.9417 35.0856C79.9417 35.5427 79.5931 35.8858 79.1281 35.8859C78.6629 35.8859 78.3139 35.5428 78.3139 35.0856C78.3139 34.6285 78.663 34.286 79.1281 34.286ZM79.1281 34.3998C78.7792 34.3998 78.4882 34.7428 78.4882 35.0856C78.4882 35.4285 78.7792 35.714 79.1281 35.714C79.4768 35.7139 79.7674 35.4284 79.7674 35.0856C79.7673 34.7429 79.4768 34.4 79.1281 34.3998Z" fill="black"/>
</svg>
