<svg width="80" height="80" viewBox="0 0 80 80" fill="none" xmlns="http://www.w3.org/2000/svg">
<path fill-rule="evenodd" clip-rule="evenodd" d="M20.56 28.8C20.9313 28.8001 21.2875 28.9458 21.55 29.2053C21.8125 29.4648 21.96 29.8168 21.96 30.1838V49.0031C21.9607 49.3715 21.8139 49.7252 21.5516 49.987C21.2892 50.2487 20.9328 50.3973 20.56 50.4001H1.4C1.0287 50.4001 0.672577 50.2542 0.410026 49.9947C0.147512 49.7352 1.40076e-05 49.3833 0 49.0163V30.1838C0 29.8168 0.147475 29.4648 0.410026 29.2053C0.672577 28.9458 1.0287 28.8 1.4 28.8H20.56ZM9.86667 37.9329C9.47999 37.9197 8.76002 37.933 8.56003 37.9462C8.13337 37.9593 7.84005 37.9198 7.38672 38.3415C5.48062 40.419 3.82098 42.7049 2.4401 45.1548C2.3601 45.3393 2.38674 45.524 2.61341 45.524C3.54676 45.524 5.48008 45.5371 5.81341 45.5371C5.87603 45.5426 5.93876 45.5275 5.9918 45.4941C6.04483 45.4607 6.08528 45.4109 6.10677 45.3525C7.12009 41.7021 9.7066 38.6711 10.0267 38.3151L10.0534 38.2888C10.0789 38.2446 10.0927 38.1947 10.0934 38.1438C10.0932 38.1151 10.0871 38.0866 10.0755 38.0602C10.0639 38.0338 10.047 38.01 10.0258 37.9903C10.0046 37.9706 9.97957 37.9552 9.95221 37.9454C9.92487 37.9355 9.89573 37.9313 9.86667 37.9329ZM2.56003 33.294C2.41337 33.294 2.25335 33.4654 2.4 33.7026C3.22667 35.1654 4.29339 35.6926 5.18672 35.6663C7.46669 35.6663 8.16003 35.6925 9.93333 35.6925C12.4533 35.653 13.8267 36.1802 13.8534 37.2477C13.9067 37.9198 13.5333 38.8687 11.8801 39.3036C11.2667 39.4881 10.64 39.3826 10.0667 39.409C10.001 39.4133 9.93928 39.4415 9.89336 39.4881C9.79994 39.5805 9.36003 40.2525 9.18672 40.516C9.1738 40.5408 9.16629 40.5681 9.16471 40.5959C9.16314 40.6238 9.16754 40.6518 9.1776 40.6779C9.18767 40.704 9.20311 40.7278 9.22305 40.7476C9.24299 40.7673 9.26699 40.7827 9.29336 40.7927C12.1867 41.5835 13.4534 42.2293 15.3867 45.1945C15.4134 45.234 15.4534 45.2867 15.4801 45.3263C15.5136 45.3877 15.5638 45.4387 15.625 45.4736C15.6862 45.5085 15.7561 45.526 15.8267 45.524H19.3867C19.6 45.5239 19.6 45.3394 19.4801 45.1945C19.1867 44.6278 17.9334 43.0859 18.2134 43.4417C17.1334 42.1766 16.1601 41.2672 14.8401 40.4633C15.5601 39.9888 17.2401 39.0135 17.2134 36.905C17.1467 35.3499 16.0667 33.5576 11.7734 33.3467C8.93344 33.2808 4.54669 33.3203 2.56003 33.294Z" fill="black"/>
<path fill-rule="evenodd" clip-rule="evenodd" d="M79.24 42.0051C79.2886 41.9996 79.3378 42.0052 79.384 42.0212C79.4301 42.0371 79.4721 42.0632 79.5066 42.0973C79.5367 42.1265 79.5605 42.1614 79.5766 42.1999C79.5926 42.2384 79.6005 42.2798 79.6 42.3214C79.5946 42.3816 79.5764 42.44 79.5466 42.4927C79.5085 42.5491 79.452 42.591 79.3866 42.6114L79.6133 43.1516H79.4667L79.2533 42.6509H78.9199V43.1516H78.7733V42.0051H79.24ZM78.9066 42.5455H79.2133C79.2473 42.5482 79.2816 42.5437 79.3138 42.5323C79.346 42.521 79.3754 42.503 79.4 42.4796C79.4335 42.4334 79.452 42.3782 79.4533 42.3214C79.4509 42.2664 79.427 42.2144 79.3866 42.1765C79.3449 42.1435 79.2934 42.1249 79.24 42.1237H78.9066V42.5455Z" fill="black"/>
<path fill-rule="evenodd" clip-rule="evenodd" d="M78.9643 41.758C79.1324 41.7249 79.3066 41.7419 79.465 41.8067C79.6233 41.8716 79.7587 41.9815 79.8539 42.1223C79.9491 42.2632 80 42.4287 80 42.5981C80.0002 42.7106 79.9779 42.8222 79.9344 42.9262C79.8909 43.0302 79.8271 43.1247 79.7466 43.2043C79.6661 43.2839 79.5704 43.3469 79.4652 43.3899C79.36 43.4329 79.2472 43.4549 79.1333 43.4547C78.9619 43.4547 78.7943 43.4046 78.6518 43.3105C78.5093 43.2164 78.3983 43.0825 78.3327 42.926C78.2671 42.7695 78.2499 42.5972 78.2833 42.4311C78.3168 42.2649 78.3994 42.1123 78.5206 41.9925C78.6418 41.8727 78.7962 41.791 78.9643 41.758ZM79.1333 41.847C78.983 41.847 78.8361 41.891 78.7111 41.9735C78.5861 42.0561 78.4888 42.1735 78.4313 42.3107C78.3737 42.448 78.3586 42.599 78.3879 42.7447C78.4172 42.8904 78.4897 43.0243 78.596 43.1294C78.7022 43.2344 78.8376 43.3059 78.985 43.3349C79.1325 43.3639 79.2854 43.349 79.4242 43.2922C79.5631 43.2353 79.6817 43.139 79.7652 43.0155C79.8487 42.892 79.8934 42.7467 79.8934 42.5981C79.8957 42.4989 79.8777 42.4001 79.8404 42.3079C79.803 42.2157 79.7471 42.132 79.676 42.0618C79.605 41.9916 79.5202 41.9363 79.427 41.8994C79.3337 41.8625 79.2338 41.8447 79.1333 41.847Z" fill="black"/>
<path d="M38.6534 35.6398C39.1581 35.6269 39.658 35.7402 40.1066 35.9692C40.4132 36.1141 40.5066 36.2327 40.4934 36.2328L40.1066 38.0119C39.9225 37.8644 39.7263 37.7321 39.5201 37.6166C39.2111 37.476 38.8733 37.4083 38.5333 37.4189C38.3072 37.4127 38.082 37.4516 37.8714 37.533C37.6606 37.6145 37.4685 37.7372 37.3066 37.8934C36.8267 38.3547 36.56 39.119 36.56 39.9756C36.56 40.5818 36.7334 41.5966 37.9201 41.5966C38.2819 41.6007 38.642 41.5472 38.9867 41.4384C39.1684 41.3843 39.3429 41.3092 39.5066 41.2145C39.504 41.2271 39.1336 43.0188 39.1201 43.0858C38.9867 43.178 38.2666 43.389 37.5733 43.389C35.8133 43.389 34.6801 42.1237 34.6801 40.1469C34.6801 38.5918 35.2667 37.2212 36.3066 36.4305C36.9695 35.9006 37.8011 35.6204 38.6534 35.6398Z" fill="black"/>
<path d="M65.4799 35.6925C66.0115 35.6732 66.538 35.801 67 36.0615L67.16 36.1669L66.6 37.8934L66.3466 37.7352C66.0648 37.5668 65.7426 37.4758 65.4133 37.4717H65.3733C64.96 37.4717 64.6934 37.6561 64.6934 37.946C64.6934 38.2096 64.9867 38.4205 65.44 38.7236C66.32 39.2376 66.7467 39.9097 66.76 40.7795C66.76 42.3346 65.6933 43.3757 64.1066 43.3757H64.0934C63.3467 43.3625 62.6401 43.1516 62.2534 42.8222L62.1201 42.7036L62.6934 41.0168L62.96 41.1881C63.3287 41.4517 63.7717 41.5945 64.2267 41.5966C64.5467 41.5966 64.9333 41.4384 64.9333 41.0299C64.9333 40.8059 64.8266 40.6081 64.24 40.2523C63.6533 39.8965 62.8934 39.2903 62.8934 38.1965C62.8934 36.7205 63.96 35.6925 65.4799 35.6925Z" fill="black"/>
<path fill-rule="evenodd" clip-rule="evenodd" d="M70.5333 35.732C70.8747 35.7253 71.2142 35.7835 71.5333 35.9033C71.8516 36.0155 72.1328 36.2114 72.3466 36.47C72.5828 36.7414 72.7559 37.0609 72.8534 37.4058C72.9789 37.8156 73.0374 38.2428 73.0267 38.6709C73.027 39.2823 72.9371 39.8906 72.76 40.4764C72.6135 41.0071 72.3792 41.5103 72.0667 41.9656C71.7768 42.3828 71.3994 42.7334 70.96 42.9935C70.5127 43.2439 70.0074 43.3757 69.4934 43.3757C68.68 43.3757 68.04 43.099 67.6 42.585C67.16 42.071 66.9333 41.3461 66.9333 40.3841C66.9343 39.7867 67.0196 39.1923 67.1867 38.6182C67.3293 38.0878 67.5688 37.5875 67.8934 37.1422C68.1861 36.7179 68.5739 36.3661 69.0267 36.1143C69.4871 35.8604 70.0062 35.7287 70.5333 35.732ZM70.4 37.6561C70.2078 37.6521 70.0198 37.7126 69.8667 37.8275C69.6801 37.9877 69.5183 38.1741 69.3867 38.3809C69.2452 38.6631 69.1335 38.9591 69.0534 39.2639C68.9607 39.6167 68.9159 39.9801 68.9201 40.3446C68.9053 40.6498 68.9695 40.9537 69.1066 41.2276C69.16 41.3198 69.28 41.4517 69.6133 41.4517C69.8025 41.4486 69.9854 41.3836 70.1333 41.2671C70.3367 41.1133 70.501 40.9147 70.6133 40.6872C70.7547 40.3958 70.8663 40.0912 70.9466 39.7779C71.0181 39.4215 71.0626 39.0602 71.0799 38.6973C71.0799 38.3151 71.0133 38.012 70.8934 37.867C70.8338 37.7959 70.758 37.7397 70.6723 37.7031C70.5865 37.6664 70.4932 37.6503 70.4 37.6561Z" fill="black"/>
<path fill-rule="evenodd" clip-rule="evenodd" d="M42.36 38.4996H43.8L44.16 36.6809L44.3467 35.7848H46.2667C46.2625 35.8051 44.8535 42.7031 44.8267 42.9145C44.816 42.9477 44.8112 42.9824 44.8121 43.0169L48.6 35.7848H50C50.0023 35.8042 50.84 42.7429 50.8667 42.9672L50.8681 42.978L52.3467 35.7979H54.7066C56.12 35.8111 57.1067 36.8128 56.9467 37.9593C56.8001 39.119 56.0667 39.7911 55.16 40.0151L55.7066 41.2935L56.4318 43.0205L56.56 42.3478L57.8534 35.7848H59.9503C60.3015 35.7878 60.6507 35.841 60.9867 35.943C61.3244 36.0571 61.6336 36.2413 61.8934 36.4832C62.1575 36.7373 62.3583 37.0487 62.4799 37.3926C62.62 37.8046 62.6921 38.2362 62.6934 38.6709C62.6916 38.9887 62.6648 39.306 62.6133 39.6198C62.5651 39.9689 62.4848 40.313 62.3733 40.6477C62.2525 41.0009 62.0867 41.3375 61.88 41.6493C61.6691 41.9809 61.4032 42.275 61.0934 42.5191C60.7577 42.7901 60.3731 42.9959 59.96 43.1254C59.6668 43.2308 58.5472 43.2572 58.4534 43.2572H56.3867L56.3918 43.2308H54.64L53.8801 41.4122L53.3467 40.1997L52.96 41.926L52.6801 43.2439H50.9048L50.9066 43.2571H49.1333L49.1066 42.9276L48.9733 41.8865H47.2667L46.6134 43.2439H42.84L43.4 40.4369H41.9733L41.4134 43.2439H39.4801L40.9733 35.7848H42.9066L42.36 38.4996ZM58.64 41.4253H58.7733C59.0801 41.4371 59.3831 41.3542 59.64 41.1881C59.892 41.0336 60.1025 40.821 60.2534 40.5687C60.4041 40.2983 60.5205 40.0106 60.6 39.712C60.6804 39.4249 60.712 39.1264 60.6934 38.829C60.6934 38.4205 60.6266 38.1174 60.4799 37.946C60.3599 37.7879 60.1066 37.7088 59.76 37.7088H59.3867L58.64 41.4253ZM47.8934 40.4633H48.9333L48.76 38.4205L47.8934 40.4633ZM53.6 38.7105H54.2801V38.7236C54.6667 38.7236 55.1734 38.5786 55.2534 37.9329C55.3334 37.2872 54.7201 37.195 54.3201 37.1949H53.9467L53.6 38.7105Z" fill="black"/>
<path fill-rule="evenodd" clip-rule="evenodd" d="M30.0667 35.7979C31.48 35.8111 32.4533 36.8128 32.3066 37.9593C32.16 39.119 31.4132 39.7911 30.5199 40.0151L31.0667 41.2935L31.7819 42.9973L31.9466 42.1632L33.2267 35.7979H35.1466C35.1466 35.7979 33.7737 42.6493 33.7201 42.8881L33.6667 43.2439H31.7333L31.7359 43.2308H30L29.24 41.4122L28.7066 40.1997L28.3199 41.926L28.04 43.2439H26.1733L27.7066 35.7979H30.0667ZM28.9466 38.7105H29.6267V38.7236C30.0134 38.7236 30.52 38.5786 30.6 37.9329C30.68 37.2872 30.0667 37.195 29.6667 37.1949H29.2934L28.9466 38.7105Z" fill="black"/>
<path d="M76.76 39.0795L77.24 36.7599L77.4267 35.7848H79.2934L77.7733 43.2439H76.4267L75.0267 40.0151C74.7468 41.3985 74.4669 42.7952 74.4534 42.8881L74.3733 43.2439H72.4534L72.6667 42.1632L73.9466 35.7979H73.9733V35.7848H75.3201L76.76 39.0795Z" fill="black"/>
</svg>
