<svg width="80" height="80" viewBox="0 0 80 80" fill="none" xmlns="http://www.w3.org/2000/svg">
<path fill-rule="evenodd" clip-rule="evenodd" d="M17.6455 33.1602C17.6371 33.3534 17.589 33.5435 17.5049 33.7178C17.4208 33.8918 17.3022 34.0471 17.1562 34.1738C16.7843 34.4576 16.3362 34.6241 15.8691 34.6514C13.9479 34.9292 12.0267 35.2183 10.1055 35.5L9.28711 35.6338C9.12325 35.6482 8.96717 35.7091 8.83691 35.8096C8.70663 35.9101 8.60729 36.0453 8.55176 36.2002C8.21916 37.0532 7.89021 37.9146 7.56152 38.7715C7.54593 38.8096 7.53287 38.8488 7.52246 38.8887C7.69242 38.7462 7.84972 38.5889 7.99219 38.4189C8.10242 38.2672 8.25189 38.1482 8.42383 38.0732C8.59577 37.9983 8.7845 37.9706 8.9707 37.9932C10.3128 38.0323 11.655 38.0166 12.9971 38.0322C13.6498 38.035 14.2835 38.2522 14.8008 38.6504C15.192 38.9438 15.5834 39.2525 15.9434 39.5654C16.0064 39.6255 16.0817 39.6718 16.1641 39.7002C16.2464 39.7286 16.3342 39.739 16.4209 39.7305C16.5249 39.7221 16.6292 39.7208 16.7334 39.7266C16.7576 39.8171 16.7618 39.9119 16.7441 40.0039C16.7265 40.0961 16.6879 40.1835 16.6318 40.2588C16.5758 40.334 16.5031 40.3952 16.4199 40.4385C16.3366 40.4818 16.2442 40.5061 16.1504 40.5088V40.7041C16.1504 41.7136 16.1269 42.72 16.1504 43.7295C16.1873 44.146 16.256 44.5594 16.3545 44.9658C16.4288 45.3766 16.5224 45.7875 16.5889 46.1982C16.5955 46.2991 16.5724 46.3995 16.5225 46.4873C16.4296 46.69 16.2704 46.8558 16.0713 46.9561C15.8722 47.0562 15.6448 47.0851 15.4268 47.0391C14.8399 46.9882 14.253 47.0391 13.623 47.0391C13.7834 46.7535 13.9285 46.4877 14.085 46.2256C14.1046 46.1943 14.1904 46.1865 14.2412 46.1982C14.3899 46.2374 14.5387 46.288 14.7383 46.3506C14.6288 46.1433 14.546 45.9592 14.4561 45.8105C14.2213 45.3568 13.9867 44.8991 13.7402 44.4492C13.7051 44.3807 13.6471 44.3269 13.5762 44.2969L8.48926 43.0205C8.46327 43.0185 8.43712 43.0185 8.41113 43.0205C8.29767 43.3687 8.18378 43.725 8.06641 44.0811L7.14355 46.8789C7.11616 46.9572 7.0959 47.0195 6.98242 47.0195H4.29102C4.29102 47.0195 4.27149 47.0195 4.23633 46.9961L4.78027 46.1162L5.45312 46.3271C5.45314 46.1983 5.47652 46.0928 5.48438 45.9795C5.48438 45.4318 5.53122 44.8797 5.53906 44.332C5.53593 44.2877 5.52407 44.2438 5.50391 44.2041C5.48375 44.1645 5.45583 44.1292 5.42188 44.1006C4.42408 43.2476 3.42162 42.3911 2.42383 41.5537C2.32781 41.4692 2.25754 41.3588 2.2207 41.2363C1.96252 40.3288 1.70443 39.4212 1.47754 38.498C1.44718 38.2776 1.45774 38.0526 1.50879 37.8359C1.55966 37.4761 1.63763 37.1196 1.68848 36.7637C1.69516 36.7243 1.69341 36.6839 1.68262 36.6455C1.67179 36.6069 1.6523 36.5712 1.62598 36.541C1.47353 36.4443 1.35411 36.3032 1.28418 36.1367C1.21429 35.9703 1.19672 35.7859 1.23438 35.6094C1.24602 35.452 1.24603 35.2941 1.23438 35.1367C1.36729 35.0687 1.51475 35.0323 1.66406 35.0303C1.8133 35.0283 1.96105 35.0606 2.0957 35.125C2.21525 35.1766 2.34589 35.1971 2.47559 35.1855C2.60527 35.1739 2.73038 35.1306 2.83887 35.0586C3.0747 34.9199 3.35475 34.8745 3.62207 34.9326C3.88228 34.956 4.14409 34.9561 4.4043 34.9326C4.60033 34.8855 4.80691 34.909 4.9873 34.999C5.13251 35.1019 5.30227 35.1652 5.47949 35.1816C5.6567 35.1981 5.83538 35.1681 5.99707 35.0938C6.09399 35.0494 6.1991 35.0264 6.30566 35.0264C6.41234 35.0264 6.51822 35.0494 6.61523 35.0938C6.6434 35.109 6.66804 35.1298 6.6875 35.1553C6.70707 35.1809 6.72125 35.2108 6.72852 35.2422V36.0518C6.71267 36.1328 6.67178 36.2074 6.61133 36.2637C6.22018 36.6235 6.21948 36.6196 6.43457 37.0967C6.51673 37.3001 6.60337 37.4879 6.70508 37.7383L7.20605 36.7207C7.37812 36.3727 7.55059 36.0248 7.71875 35.6768C7.80716 35.4821 7.94137 35.3116 8.11035 35.1807C8.27936 35.0498 8.47795 34.9617 8.68848 34.9248L17.4072 33.2031L17.6455 33.1602ZM3.39062 36.3418C3.35568 36.3694 3.33085 36.4079 3.32031 36.4512C3.27855 36.7548 3.25255 37.0609 3.24219 37.3672C3.24261 37.4376 3.33991 37.5468 3.41797 37.5742C3.49623 37.6016 3.58291 37.5196 3.6377 37.4609C3.7251 37.3536 3.8057 37.2409 3.87988 37.124C3.59431 36.9636 3.57901 36.9321 3.6377 36.627H4.2832C4.33016 36.8617 4.30615 37.0497 4.02051 37.1084L4.25195 37.4375C4.3145 37.5313 4.39652 37.6483 4.51758 37.5664C4.56265 37.5328 4.59994 37.4897 4.62695 37.4404C4.65396 37.3911 4.66979 37.3363 4.67383 37.2803C4.67301 37.0363 4.65086 36.7928 4.60742 36.5527C4.59365 36.4634 4.55119 36.3813 4.48633 36.3184C4.32199 36.1736 4.13801 36.0481 3.9541 35.9268L3.39062 36.3418Z" fill="black"/>
<path d="M13.0088 44.6758L12.5195 47.0234H9.6084L10.2031 46.1279L10.9502 46.3506L10.5947 44.0576L13.0088 44.6758Z" fill="black"/>
<path d="M3.95801 43.5645C4.18483 43.7483 4.41575 43.9324 4.63867 44.1279C4.66057 44.1518 4.67669 44.1808 4.68555 44.2119C4.69438 44.2432 4.69567 44.2767 4.68945 44.3086C4.36867 45.1744 4.04052 46.0378 3.7041 46.8984C3.6931 46.9269 3.67456 46.9519 3.65137 46.9717C3.62814 46.9915 3.60016 47.0053 3.57031 47.0117H1.04688C1.04688 47.0117 1.03902 47.0071 1 46.9844L1.4502 46.1631L2.0957 46.4678L2.62793 42.4688L3.95801 43.5645Z" fill="black"/>
<path fill-rule="evenodd" clip-rule="evenodd" d="M38.4658 35.7393C38.9499 35.701 39.4364 35.7854 39.8789 35.9854C40.266 36.1731 40.5832 36.4791 40.7861 36.8584C41.9078 39.0078 43.0284 41.1559 44.1475 43.3027C44.3196 43.6392 44.4919 43.976 44.6602 44.3164C44.6816 44.3602 44.6986 44.406 44.7109 44.4531H42.1328C42.0745 44.4599 42.0156 44.4462 41.9658 44.415C41.9161 44.3838 41.8776 44.3368 41.8584 44.2812C41.4202 43.4008 40.9705 42.52 40.5244 41.6436C40.4971 41.5693 40.4658 41.5146 40.4189 41.4326C40.2859 41.6947 40.1643 41.9332 40.0273 42.168C39.953 42.3127 39.879 42.4617 39.793 42.5947C39.6778 42.7615 39.5213 42.8959 39.3389 42.9844C39.1565 43.0728 38.9542 43.1125 38.752 43.0996H36.2002C36.1421 43.0936 36.0837 43.1067 36.0342 43.1377C35.9845 43.1689 35.9466 43.2163 35.9268 43.2715C35.7624 43.6197 35.5862 43.9604 35.4023 44.3008C35.3838 44.3346 35.3581 44.3638 35.3271 44.3867C35.2961 44.4096 35.2604 44.4258 35.2227 44.4336H32.5654C32.718 44.1362 32.863 43.8501 33.0156 43.5645L36.4238 37.0068C36.6032 36.6193 36.8921 36.2927 37.2549 36.0674C37.6178 35.8421 38.0389 35.7281 38.4658 35.7393ZM37.0635 41.041H40.2422L38.6504 37.8516C38.1085 38.9431 37.5936 39.9808 37.0635 41.041Z" fill="black"/>
<path d="M57.7646 35.7158C58.0346 35.7158 58.042 35.7156 58.042 35.9854V41.9102C58.0375 41.9642 58.0453 42.0187 58.0645 42.0693C58.0838 42.1202 58.1149 42.1666 58.1543 42.2041C58.1937 42.2415 58.2413 42.2693 58.293 42.2861C58.3446 42.3029 58.3993 42.308 58.4531 42.3008H61.5645C61.8263 42.3008 61.8301 42.3014 61.8301 42.5713V44.2148C61.83 44.3866 61.7714 44.4491 61.5996 44.4492H57.1855C56.9646 44.466 56.7423 44.4341 56.5352 44.3555C56.3282 44.2769 56.1414 44.1531 55.9873 43.9941C55.8331 43.8351 55.7157 43.6441 55.6436 43.4346C55.5715 43.2251 55.5457 43.0025 55.5693 42.7822V35.9893C55.5693 35.7273 55.5699 35.7158 55.8477 35.7158H57.7646Z" fill="black"/>
<path d="M54.29 35.7314C54.513 35.7314 54.5478 35.7625 54.5479 35.9775V44.4258H52.6816C52.2943 44.4464 51.9076 44.3703 51.5566 44.2051C51.2058 44.0398 50.9017 43.7901 50.6709 43.4785C50.2797 43.0091 49.9819 42.493 49.6533 41.9883C49.1316 41.2058 48.6096 40.4231 48.0879 39.6406C48.0523 39.5832 48.0026 39.5353 47.9434 39.5029V44.1592C47.9434 44.4253 47.9428 44.4336 47.6689 44.4375H45.752C45.5291 44.4375 45.5059 44.4374 45.5059 44.207V35.8994C45.4967 35.8464 45.4902 35.7929 45.4863 35.7393H47.3916C47.7827 35.7223 48.1712 35.8111 48.5156 35.9971C48.8601 36.1831 49.1473 36.4595 49.3477 36.7959C50.0558 37.8797 50.7528 38.967 51.4531 40.0547L51.9229 40.7832C51.9585 40.839 52.0102 40.8827 52.0713 40.9082C52.083 40.8369 52.0908 40.7645 52.0947 40.6924V35.9971C52.0947 35.7312 52.0953 35.7314 52.3535 35.7314H54.29Z" fill="black"/>
<path d="M35.2695 37.0771C35.2148 37.1906 35.1515 37.3006 35.0967 37.4141C35.0084 37.6248 34.8572 37.8033 34.6631 37.9238C34.4689 38.0444 34.2418 38.1013 34.0137 38.0869H31.9355C31.697 38.0869 31.6817 38.0868 31.6816 38.3447V44.1318C31.6816 44.4097 31.6812 44.4141 31.3955 44.4141H29.3691C29.1305 44.4141 29.126 44.4135 29.126 44.1709V38.3916C29.126 38.0947 29.1259 38.0791 28.8096 38.0791H22.834C22.5132 38.0791 22.3916 38.2007 22.4033 38.4941C22.4151 38.7873 22.529 38.8848 22.7949 38.8848H25.4756C26.0835 38.8622 26.6801 39.0564 27.1582 39.4326C27.5497 39.7802 27.8229 40.2418 27.9404 40.752C28.1213 41.3914 28.1214 42.0686 27.9404 42.708C27.8067 43.2101 27.5087 43.653 27.0938 43.9658C26.6788 44.2786 26.1709 44.4432 25.6514 44.4336H20.0049C19.8369 44.4336 19.7862 44.3788 19.7861 44.2148V42.3164C19.7862 42.1367 19.8368 42.0821 20.0205 42.082H24.8691C24.9471 42.0879 25.0255 42.0879 25.1035 42.082C25.35 42.0546 25.4522 41.9369 25.4404 41.6904C25.4287 41.444 25.3148 41.374 25.0488 41.374H22.2627C21.6365 41.3984 21.0241 41.184 20.5498 40.7744C20.0756 40.3648 19.775 39.79 19.708 39.167C19.595 38.5974 19.6244 38.0085 19.7939 37.4531C19.9353 37.014 20.1991 36.624 20.5547 36.3301C20.9103 36.0362 21.3429 35.8502 21.8008 35.7939C22.0176 35.7555 22.2378 35.7372 22.458 35.7393H35.9424C35.7038 36.2087 35.4886 36.6429 35.2695 37.0771Z" fill="black"/>
<path d="M78.8867 35.9268C77.7208 37.7239 76.5546 39.5199 75.3887 41.3145C75.1766 41.6241 75.0642 41.9919 75.0674 42.3672V44.207C75.0673 44.3866 75.001 44.4375 74.833 44.4336H72.8252C72.6612 44.4335 72.6065 44.3827 72.6064 44.2148V42.2578C72.6116 41.9251 72.5141 41.5992 72.3281 41.3232C71.6186 40.2434 70.9149 39.159 70.2158 38.0713C70.1859 38.0165 70.1407 37.9712 70.0859 37.9414C70.0311 37.9116 69.9685 37.8987 69.9062 37.9033H65.5283C65.2896 37.9033 65.2773 37.9029 65.2773 38.1611V38.8262C65.2773 38.9866 65.3366 39.0459 65.5049 39.0459H69.2295C69.4838 39.0459 69.4912 39.0454 69.4912 39.3115V40.877C69.4912 41.0489 69.4406 41.1074 69.2646 41.1035H65.5908C65.3169 41.1035 65.3008 41.104 65.3008 41.3818V42C65.3008 42.2071 65.3328 42.2383 65.5439 42.2383H69.6133C69.8517 42.2383 69.8711 42.2389 69.8711 42.4932V44.1914C69.871 44.3592 69.8124 44.4218 69.6367 44.4219H63.7354C63.5887 44.4266 63.4425 44.4017 63.3057 44.3486C63.1687 44.2955 63.0437 44.2148 62.9385 44.1123C62.8333 44.0097 62.7499 43.8865 62.6934 43.751C62.6368 43.6153 62.6073 43.4693 62.6084 43.3223V36.001C62.6084 35.7156 62.609 35.7158 62.8867 35.7158H71.2764C71.3465 35.7102 71.4168 35.7249 71.4785 35.7588C71.5404 35.7929 71.5912 35.8447 71.624 35.9072C72.3205 37.0459 73.0252 38.1807 73.7256 39.3154C73.7803 39.3818 73.8194 39.4483 73.8779 39.5381C73.9365 39.4561 73.9795 39.4014 74.0146 39.3428C74.7346 38.208 75.4535 37.0745 76.1709 35.9424C76.2062 35.8697 76.2625 35.8096 76.332 35.7686C76.4016 35.7275 76.4818 35.7076 76.5625 35.7119H78.9844C78.9414 35.8056 78.9219 35.8682 78.8867 35.9268Z" fill="black"/>
<path fill-rule="evenodd" clip-rule="evenodd" d="M76.9971 43.1035C77.0989 43.1035 77.2861 43.1035 77.3369 43.2754C77.3496 43.3102 77.3548 43.3477 77.3525 43.3848C77.3502 43.4215 77.3409 43.4574 77.3242 43.4902C77.3074 43.5232 77.2835 43.5527 77.2549 43.5762C77.2263 43.5997 77.1928 43.6168 77.1572 43.627L77.3721 43.9951C77.2353 44.0498 77.1651 43.9952 77.1064 43.8857C77.0529 43.79 76.9934 43.6967 76.9297 43.6074C76.7849 43.7522 76.9849 43.999 76.6992 44.0264V43.1035H76.9971ZM76.8672 43.5059C76.9629 43.4834 77.0575 43.4548 77.1494 43.4199V43.3105C77.0633 43.2753 76.9689 43.2559 76.8633 43.2246L76.8672 43.5059Z" fill="black"/>
<path fill-rule="evenodd" clip-rule="evenodd" d="M77.0049 42.7236C77.2275 42.7248 77.4412 42.8133 77.5986 42.9707C77.7561 43.1282 77.8446 43.3418 77.8457 43.5645C77.8467 43.7889 77.7591 44.0052 77.6016 44.165C77.444 44.3248 77.2292 44.4158 77.0049 44.418C76.8888 44.4259 76.7717 44.4101 76.6621 44.3711C76.5525 44.3321 76.4522 44.2708 76.3672 44.1914C76.2822 44.112 76.2143 44.0158 76.168 43.9092C76.1216 43.8024 76.0977 43.6867 76.0977 43.5703C76.0977 43.4541 76.1217 43.339 76.168 43.2324C76.2143 43.1257 76.2822 43.0296 76.3672 42.9502C76.4522 42.8708 76.5525 42.8095 76.6621 42.7705C76.7717 42.7315 76.8888 42.7157 77.0049 42.7236ZM76.9893 42.8721C76.8045 42.8752 76.6284 42.9521 76.5 43.085C76.3717 43.2177 76.3007 43.3955 76.3037 43.5801C76.3068 43.7648 76.3838 43.9409 76.5166 44.0693C76.6494 44.1977 76.828 44.2687 77.0127 44.2656C77.1972 44.2624 77.3727 44.1854 77.501 44.0527C77.6294 43.9199 77.7004 43.7414 77.6973 43.5566C77.694 43.3721 77.6171 43.1967 77.4844 43.0684C77.3517 42.9401 77.1738 42.8691 76.9893 42.8721Z" fill="black"/>
<path d="M15.5557 36.8271C15.5172 37.0119 15.4155 37.1777 15.2676 37.2949C15.1196 37.4121 14.9348 37.4736 14.7461 37.4688H13.8223L8.91211 37.5195H8.58301C8.63779 37.3669 8.68154 37.2258 8.74023 37.0928C8.74041 37.0615 8.83394 37.042 8.88477 37.042L12.6055 36.9131L15.3447 36.8115L15.5557 36.8271Z" fill="black"/>
<path d="M16.7891 35.2227C16.775 35.4162 16.7025 35.6009 16.582 35.7529C16.4613 35.9051 16.2968 36.0175 16.1113 36.0752C15.7041 36.1732 15.2891 36.2368 14.8711 36.2637C13.4704 36.3615 12.0697 36.4354 10.6689 36.5176L8.88867 36.623C8.93569 36.479 9.02362 36.3519 9.1416 36.2568C9.2597 36.1617 9.40281 36.1022 9.55371 36.0869L11.1426 35.8955L15.3408 35.3789L16.6279 35.2227C16.6813 35.2187 16.7357 35.2187 16.7891 35.2227Z" fill="black"/>
<path d="M5.24512 33C5.2724 33.039 5.3392 33.0897 5.32812 33.1133C5.18336 33.5045 5.30375 33.8959 5.26465 34.2559C5.26074 34.3498 5.26855 34.4402 5.26855 34.5654H2.65918V33.3877C2.64623 33.3105 2.62669 33.234 2.60059 33.1602C2.58883 33.1166 2.5888 33.0708 2.60059 33.0273C2.60465 33.0258 2.683 32.9969 2.69824 33.0273C2.71387 33.0586 2.72951 33.1093 2.74902 33.1445C2.82911 33.3257 2.92245 33.501 3.02734 33.6689C3.06469 33.68 3.10412 33.6828 3.14258 33.6768C3.18111 33.6707 3.21784 33.6559 3.25 33.6338C3.32721 33.4678 3.39228 33.2963 3.44531 33.1211C3.44531 33.086 3.44559 33.0353 3.48438 33.0156C3.49984 33.0071 3.51752 33.003 3.53516 33.0029C3.55294 33.0029 3.57133 33.0071 3.58691 33.0156C3.61 33.0392 3.58697 33.0899 3.61816 33.125C3.6694 33.3056 3.74266 33.4792 3.83691 33.6416C3.85651 33.6646 3.8817 33.6823 3.91016 33.6924C3.93856 33.7024 3.96939 33.7047 3.99902 33.6992C4.02879 33.6937 4.0571 33.6799 4.08008 33.6602C4.10287 33.6405 4.1199 33.6153 4.12988 33.5869C4.20032 33.4304 4.34972 33.2933 4.28711 33.0898C4.28733 33.0702 4.34571 33.0078 4.37695 33.0078C4.40822 33.0079 4.45501 33.0547 4.4668 33.0938C4.51766 33.2463 4.54092 33.4109 4.60352 33.5596C4.61344 33.5934 4.63324 33.6237 4.66016 33.6465C4.68698 33.6692 4.72002 33.6833 4.75488 33.6875C4.78989 33.6917 4.82591 33.6857 4.85742 33.6699C4.8889 33.6541 4.91504 33.6292 4.93262 33.5986C5.02653 33.4382 5.20224 33.3089 5.14746 33.0859C5.14746 33.0859 5.20985 33.0275 5.24512 33Z" fill="black"/>
</svg>
