<svg width="80" height="80" viewBox="0 0 80 80" fill="none" xmlns="http://www.w3.org/2000/svg">
<path d="M23.2829 49.3045L23.3021 49.3053L23.3198 49.3064L23.3363 49.3079L23.3522 49.3102L23.3668 49.3125L23.3811 49.3155L23.3939 49.3181L23.4053 49.3219L23.4166 49.3256L23.4263 49.3294L23.4349 49.3332L23.4432 49.3377L23.4508 49.3418L23.4579 49.3467L23.4692 49.3561L23.4734 49.3606L23.4782 49.3659L23.482 49.3712L23.4858 49.3765L23.4888 49.3825L23.4925 49.3888L23.4952 49.3952L23.4979 49.4028L23.4997 49.4103L23.502 49.4186L23.5035 49.4276L23.5046 49.4371L23.5058 49.4468L23.5061 49.4574V49.4818L23.5054 49.4935L23.5039 49.5048L23.502 49.5154L23.5001 49.5251L23.4975 49.5338L23.4945 49.5428L23.4915 49.5504L23.4877 49.5575L23.4839 49.5647L23.4798 49.5707L23.4752 49.5768L23.4707 49.5824L23.4602 49.5929L23.4478 49.6023L23.441 49.6068L23.4335 49.611L23.4256 49.6148L23.4176 49.6185L23.409 49.6223L23.3995 49.6253L23.3902 49.6283L23.38 49.6309L23.3695 49.6332L23.3582 49.6351L23.3469 49.637L23.3356 49.6384L23.3228 49.6392L23.3107 49.6404L23.2976 49.6408L23.299 49.6404H22.9433V49.3045H23.2829Z" fill="black"/>
<path fill-rule="evenodd" clip-rule="evenodd" d="M23.2125 48.797L23.2576 48.8008L23.3021 48.8068L23.3457 48.8143L23.3886 48.8242L23.4305 48.8362L23.4719 48.8501L23.5118 48.8656L23.5513 48.8837L23.5889 48.9032L23.6262 48.9243L23.662 48.9476L23.6966 48.9721L23.7298 48.9985L23.7622 49.0263L23.7926 49.0553L23.822 49.0858L23.8494 49.1182L23.8758 49.1513L23.9003 49.1863L23.9236 49.2221L23.9447 49.259L23.9643 49.2974L23.982 49.3365L23.9974 49.3765L24.0117 49.4178L24.0231 49.4596L24.0332 49.5025L24.0407 49.5462L24.0464 49.5899L24.0497 49.6351L24.0509 49.681L24.0501 49.7269L24.0464 49.7717L24.0407 49.8161L24.0332 49.8602L24.0231 49.9027L24.0114 49.9445L23.9974 49.986L23.9816 50.0259L23.9643 50.0654L23.9447 50.103L23.9236 50.1403L23.9003 50.1764L23.8762 50.2103L23.8498 50.2442L23.822 50.2762L23.7926 50.3067L23.7622 50.3361L23.7298 50.3639L23.6966 50.3903L23.662 50.4148L23.6266 50.4381L23.5889 50.4588L23.5513 50.4788L23.5118 50.4965L23.4719 50.5118L23.4305 50.5258L23.3882 50.5378L23.3457 50.5476L23.3017 50.5551L23.2573 50.5608L23.2121 50.5646L23.1666 50.5657L23.1206 50.5646L23.0754 50.5612L23.0314 50.5551L22.9881 50.5476L22.9448 50.5378L22.9034 50.5258L22.862 50.5122L22.8221 50.4965L22.7825 50.4788L22.7449 50.4588L22.7076 50.4381L22.6718 50.4148L22.6376 50.3903L22.6037 50.3639L22.5717 50.3361L22.5408 50.3067L22.5115 50.2762L22.4836 50.2445L22.4572 50.2107L22.4328 50.1761L22.4099 50.1403L22.3888 50.103L22.3688 50.0654L22.3511 50.0259L22.3353 49.986L22.3214 49.9449L22.3093 49.9027L22.2996 49.8602L22.292 49.8161L22.2863 49.7721L22.2829 49.7269L22.2819 49.681L22.2825 49.6354L22.2863 49.5903L22.292 49.5458L22.2996 49.5025L22.3093 49.4596L22.3214 49.4178L22.3353 49.3765L22.3511 49.3365L22.3688 49.2974L22.3884 49.2597L22.4099 49.2221L22.4328 49.1863L22.4576 49.1521L22.484 49.1182L22.5115 49.0862L22.5412 49.0557L22.5717 49.0259L22.6041 48.9985L22.6372 48.9721L22.6718 48.9473L22.7076 48.9243L22.7453 48.9032L22.7829 48.8833L22.8221 48.8656L22.862 48.8501L22.9034 48.8362L22.9452 48.8242L22.9881 48.814L23.0314 48.8064L23.0754 48.8008L23.1206 48.7974L23.1666 48.7963L23.2125 48.797ZM22.7946 49.1558V50.1309H22.9433V49.789H23.2598L23.5027 50.1614L23.627 50.0804L23.4257 49.772L23.4301 49.771L23.4452 49.7664L23.4602 49.7608L23.4752 49.7555L23.4903 49.7483L23.5042 49.7409L23.5182 49.7334L23.5313 49.7247L23.5449 49.7149L23.5569 49.7048L23.569 49.6934L23.5803 49.6817L23.5915 49.669L23.6014 49.6554L23.6104 49.6411L23.6191 49.6268L23.6266 49.611L23.6334 49.5947L23.639 49.5786L23.6439 49.5613L23.6477 49.5436L23.6507 49.5255L23.6529 49.5067L23.6541 49.4875L23.6548 49.4683L23.6545 49.4521L23.6537 49.4359L23.6522 49.4198L23.6499 49.4043L23.6469 49.3885L23.6432 49.3731L23.6386 49.3576L23.6334 49.3425L23.6273 49.3275L23.6201 49.3132L23.6123 49.2992L23.6028 49.2853L23.5931 49.2726L23.5825 49.2601L23.5701 49.2477L23.5581 49.2368L23.5442 49.2262L23.5306 49.2168L23.5156 49.2078L23.5001 49.2002L23.4839 49.1927L23.4669 49.1859L23.4496 49.1799L23.4312 49.175L23.4124 49.1705L23.3936 49.1667L23.3736 49.1633L23.3529 49.1607L23.3314 49.1585L23.3089 49.1573L23.2863 49.1562L23.263 49.1558H22.7946Z" fill="black"/>
<path d="M32.7414 45.2198L33.6084 47.9888H31.8265L32.7225 45.2198H32.7414Z" fill="black"/>
<path d="M25.5997 37.0022C26.3887 37.0023 27.499 37.4917 27.499 39.45C27.499 41.4095 26.3891 41.8971 25.6 41.8971C24.811 41.8971 23.697 41.4095 23.697 39.45C23.697 37.4916 24.8106 37.0022 25.5997 37.0022Z" fill="black"/>
<path d="M32.928 37.1539C33.7841 37.1539 33.9498 37.6987 33.9498 38.0669C33.9498 38.7576 33.5804 39.0212 32.8215 39.0212H31.1093V37.1539H32.928Z" fill="black"/>
<path fill-rule="evenodd" clip-rule="evenodd" d="M72 72H8V8H72V72ZM38.9885 43.4556C37.1825 43.4556 35.7689 44.7037 35.7689 47.1504C35.7689 49.5695 37.1058 50.8254 38.9677 50.8255C40.7236 50.8254 41.7167 49.763 42.0081 48.2428H40.5471C40.3716 49.0996 39.8069 49.559 38.996 49.559C37.7579 49.559 37.2605 48.4274 37.2605 47.1688C37.2605 45.1909 38.2947 44.7232 38.996 44.7232C40.2056 44.7232 40.4326 45.5127 40.5471 45.9317H42.0078C41.9303 44.8991 41.0839 43.4557 38.9885 43.4556ZM23.1138 48.6494L23.0611 48.6532L23.0096 48.6597L22.9584 48.6694L22.9087 48.6807L22.8598 48.6943L22.8115 48.7104L22.7644 48.7293L22.7193 48.75L22.6742 48.7726L22.6312 48.7978L22.5891 48.8245L22.5484 48.8531L22.5096 48.884L22.4719 48.9168L22.4358 48.9506L22.4019 48.9864L22.3696 49.024L22.3387 49.0629L22.3097 49.1035L22.2833 49.1456L22.2581 49.1885L22.2356 49.2338L22.2148 49.2789L22.196 49.326L22.1798 49.3741L22.1659 49.4232L22.1546 49.4732L22.1452 49.524L22.1388 49.5756L22.1346 49.6283L22.1331 49.681L22.135 49.7338L22.1388 49.7864L22.1452 49.8383L22.1546 49.8892L22.1659 49.9393L22.1798 49.9882L22.196 50.0364L22.2148 50.0835L22.2356 50.129L22.2581 50.1738L22.2833 50.2171L22.3097 50.2588L22.3391 50.2995L22.3696 50.3383L22.4019 50.3759L22.4362 50.4121L22.4719 50.446L22.5096 50.4784L22.5484 50.5088L22.5891 50.5378L22.6308 50.5646L22.6738 50.5895L22.7189 50.612L22.7644 50.6328L22.8115 50.6515L22.8594 50.6678L22.9083 50.6817L22.9584 50.693L23.0092 50.7024L23.0607 50.7087L23.1135 50.7125L23.1666 50.7141L23.2193 50.7125L23.2719 50.7084L23.324 50.7024L23.3747 50.6926L23.4252 50.6813L23.4741 50.6674L23.5223 50.6515L23.5694 50.6328L23.6149 50.612L23.6597 50.5895L23.703 50.5642L23.7451 50.5378L23.7854 50.5084L23.8242 50.4784L23.8619 50.4456L23.8981 50.4117L23.9319 50.3759L23.9643 50.3383L23.9947 50.2995L24.0237 50.2585L24.0501 50.2171L24.075 50.1742L24.0976 50.129L24.1187 50.0835L24.1367 50.0364L24.1529 49.9882L24.1668 49.9393L24.1781 49.8892L24.1875 49.8383L24.194 49.7864L24.1977 49.7338L24.1996 49.681L24.1977 49.6283L24.194 49.5756L24.1875 49.524L24.1785 49.4732L24.1672 49.4232L24.1529 49.3741L24.1371 49.326L24.1183 49.2789L24.098 49.2334L24.0754 49.1889L24.0501 49.1456L24.0233 49.1035L23.9947 49.0632L23.9643 49.0244L23.9315 48.9868L23.8977 48.9506L23.8619 48.9164L23.8246 48.8837L23.7854 48.8535L23.7451 48.8242L23.703 48.7978L23.6601 48.7726L23.6149 48.75L23.5694 48.7293L23.5223 48.7108L23.4741 48.6943L23.4252 48.6804L23.3747 48.669L23.324 48.6597L23.2723 48.6532L23.2196 48.6494L23.1666 48.648L23.1138 48.6494ZM25.3023 43.6406V50.6399H26.7645V47.6973H29.8459V46.4584H26.7645V44.8791H30.283V43.6406H25.3023ZM31.9044 43.6406L29.4073 50.6399H30.9475L31.4361 49.1968H34.018L34.4659 50.6399H36.0558L33.5911 43.6406H31.9044ZM42.5958 43.6406V50.6399H47.6447V49.4021H43.9579V47.5886H47.1971V46.35H43.9579V44.8791H47.6363V43.6406H42.5958ZM48.5934 28.2421V35.441L49.3252 35.4422V35.4414L49.7807 35.4534L50.2314 35.4877L50.6753 35.5441L51.112 35.6221L51.5412 35.7214L51.9624 35.8408L52.3742 35.9801L52.7771 36.1393L53.1701 36.3167L53.5522 36.5128L53.9231 36.7263L54.2833 36.9567L54.6309 37.2044L54.9659 37.4679L55.2878 37.7465L55.5957 38.0401L55.8894 38.3477L56.168 38.6704L56.4315 39.0051L56.6785 39.3526L56.9088 39.7129L57.122 40.084L57.3181 40.4665L57.4958 40.8599L57.6546 41.2627L57.7939 41.6749L57.9133 42.0959L58.0123 42.525L58.091 42.9618L58.1467 43.406L58.181 43.8562L58.1922 44.3121V50.6382L64.8543 50.6387V44.5422C64.8543 35.5408 57.5997 28.2421 48.6009 28.2421H48.5934ZM48.5934 43.1326L49.8369 43.1285L49.9705 43.1319L50.103 43.1417L50.234 43.1579L50.3628 43.1816L50.4889 43.2106L50.6131 43.2456L50.7351 43.2871L50.8534 43.3338L50.9693 43.386L51.0819 43.4437L51.191 43.5065L51.2972 43.5743L51.3996 43.647L51.4975 43.7245L51.5927 43.8066L51.6835 43.8932L51.7701 43.9835L51.8518 44.0788L51.9297 44.177L52.0024 44.2794L52.0701 44.3856L52.1326 44.4947L52.1902 44.607L52.2429 44.7229L52.2896 44.8411L52.3306 44.9623L52.3656 45.0865L52.3946 45.2127L52.4179 45.3414L52.4342 45.472L52.4443 45.6046L52.4477 45.7383L52.4488 50.6378L57.8963 50.6382V44.3121H57.896L57.8847 43.8702L57.8515 43.435L57.7969 43.0058L57.7216 42.5842L57.6264 42.1689L57.5105 41.7623L57.3757 41.364L57.2224 40.9748L57.0507 40.5952L56.8618 40.2256L56.6555 39.8664L56.4323 39.5189L56.1932 39.1827L55.9391 38.8582L55.6696 38.5476L55.3856 38.2495L55.0883 37.966L54.7773 37.6965L54.4536 37.4415L54.1174 37.2029L53.7698 36.9797L53.4107 36.773L53.041 36.584L52.6619 36.4123L52.2723 36.2591L51.874 36.124L51.4677 36.0083L51.0529 35.9127L50.6312 35.8374L50.202 35.7828L49.7672 35.7497L49.3252 35.7387L48.5934 35.7373V43.1326ZM48.5934 43.4285V50.6376L52.1525 50.6378L52.1514 45.7383H52.1506L52.148 45.6185L52.1393 45.5014L52.1243 45.3858L52.1043 45.2721L52.0783 45.16L52.0471 45.0508L52.0106 44.9435L51.9692 44.8381L51.9233 44.736L51.8724 44.6363L51.8164 44.5388L51.7561 44.4454L51.6914 44.3547L51.6228 44.267L51.5501 44.1834L51.4734 44.1032L51.3932 44.026L51.3096 43.9534L51.2219 43.8849L51.1312 43.8205L51.0374 43.7599L50.9403 43.7042L50.8401 43.6529L50.7385 43.6066L50.6328 43.5653L50.5258 43.5291L50.4158 43.4975L50.3037 43.4719L50.19 43.4519L50.074 43.4369L49.9566 43.4278L49.8369 43.4248L48.5934 43.4285ZM25.6 35.7643C24.6724 35.7643 22.2348 36.1649 22.2348 39.45C22.2348 42.7343 24.672 43.1349 25.5997 43.1349C26.5251 43.1349 28.9608 42.7342 28.9608 39.45C28.9608 36.165 26.5254 35.7643 25.6 35.7643ZM15.8145 35.9507V42.9497H17.1792V37.9588H17.1998L20.0558 42.9493H21.5191V35.9507H20.1522V40.8245H20.1326L17.3535 35.9507H15.8145ZM35.7617 35.9507V37.1878H37.8775V42.9497H39.3413V37.1878H41.4539V35.9507H35.7617ZM41.9803 35.9507V42.9497H43.441V39.8118H46.1704V42.9493H47.6363V35.9507H46.1704V38.6011H43.441V35.9507H41.9803ZM29.6779 35.947V42.9305H31.1093V40.1973H32.6156C33.6975 40.1973 33.7548 40.5674 33.7548 41.5206C33.7548 42.2392 33.8116 42.6003 33.908 42.9305H35.5249V42.7468C35.2144 42.6293 35.2143 42.3766 35.2143 41.3549C35.2143 40.0517 34.9022 39.8381 34.3278 39.5855C35.0178 39.3517 35.4071 38.6898 35.4071 37.923C35.4071 37.318 35.0678 35.947 33.2108 35.947H29.6779ZM30.0559 28.2594V29.4973H32.1729V35.2592H33.6351V29.4973H35.752V28.2594H30.0559ZM36.1314 28.2594V35.2592H37.5937V32.1194H40.3216V35.2592H41.7849V28.2594H40.3216V30.9124H37.5937V28.2594H36.1314ZM42.5958 28.2594V35.2588H47.6447V34.0209H43.9579V32.2071H47.1971V30.97H43.9579V29.4973H47.6363V28.2594H42.5958Z" fill="black"/>
</svg>
