<svg width="80" height="80" viewBox="0 0 80 80" fill="none" xmlns="http://www.w3.org/2000/svg">
<path fill-rule="evenodd" clip-rule="evenodd" d="M66.1899 56.9725C67.0645 56.7153 67.6303 56.9382 68.0075 57.7612C68.5391 58.8756 68.5048 60.0261 68.179 61.1903C67.8361 62.3905 67.2359 63.4552 66.5843 64.4994C66.4471 64.7051 66.3271 64.9281 66.1899 65.1852C66.55 65.3738 66.893 65.3225 67.2188 65.3396C68.1105 65.3739 68.985 65.3911 69.8767 65.4253C70.4228 65.4417 70.9551 65.6014 71.42 65.8883C71.6086 66.0083 71.8144 66.1112 71.8487 66.4541C71.18 66.3684 70.5283 66.2998 69.8938 66.2312C68.8478 66.1112 67.8018 65.9398 66.7387 65.974C66.1094 65.9727 65.4859 66.095 64.9038 66.334C64.0293 66.7112 63.6691 67.3799 63.7206 68.4086C64.0978 68.3915 64.3037 68.083 64.5952 67.9458C65.2468 67.6029 65.4182 67.6714 65.6068 68.3572C65.6754 68.6144 65.624 68.9744 66.0012 69.043C66.4 69.1027 66.8077 69.0368 67.1674 68.8545C67.356 68.7688 67.2873 68.5458 67.3216 68.3915C67.416 67.9144 67.6349 67.4708 67.9561 67.1056C68.2057 66.8303 68.5261 66.6287 68.8822 66.5226C69.5852 66.3512 70.0311 66.7284 70.0482 67.4485C70.0653 68.0486 69.7566 68.5288 69.4651 69.0603C70.4425 69.5232 71.3171 69.4545 72.2088 69.043C72.2945 68.6847 72.0031 68.5132 71.8831 68.2715C71.763 68.0297 71.7115 67.7572 71.9859 67.6029C72.043 67.5585 72.1088 67.5265 72.1791 67.5093C72.2494 67.492 72.3226 67.4898 72.3938 67.5028C72.465 67.5157 72.5327 67.5434 72.5924 67.5843C72.6521 67.6252 72.7026 67.6783 72.7405 67.74C72.8421 67.9117 72.9336 68.0892 73.0147 68.2715C73.3406 68.803 73.9921 68.8373 74.3522 68.3401C74.6095 67.9801 74.7638 67.4828 75.3468 67.5513C75.8441 67.6028 76.1356 67.9629 76.41 68.3401C76.4644 68.4059 76.528 68.4637 76.5987 68.5116C77.7648 67.3971 78.9137 67.1743 79.994 67.9458C79.1194 68.1516 78.5707 68.7859 77.9706 69.3345C77.2675 70.0032 76.8216 69.986 76.17 69.2659C75.8785 68.9573 75.6384 68.9574 75.2783 69.1117C73.7434 69.7494 72.0855 70.0363 70.4255 69.9517C69.6818 69.9361 68.9458 69.7971 68.2477 69.5403C68.0166 69.4358 67.7636 69.3887 67.5104 69.4032C66.0871 69.6261 64.6637 69.4374 63.2405 69.386C62.8461 69.3471 62.4522 69.4641 62.1429 69.7118C61.1655 70.4661 59.7252 70.4833 58.6792 69.8318C58.4327 69.6861 58.2493 69.4537 58.1648 69.1802C57.8904 68.2372 57.7188 67.2941 58.0104 66.2654C55.6268 65.9568 53.3118 66.0082 50.9111 66.0939C50.9454 68.0828 51.0654 69.9861 51.4598 71.855C50.6368 72.1122 50.6024 72.0949 50.431 71.3234C49.9508 69.0259 49.5222 66.7284 49.6079 64.3623C49.6079 64.328 49.5565 64.2765 49.5051 64.1908C49.2149 64.5462 48.9727 64.9382 48.7848 65.3567C48.3047 66.2311 47.8589 67.1228 47.3616 67.9972C47.0111 68.6569 46.5532 69.2537 46.0068 69.7632C44.6865 70.9634 43.0403 70.9977 41.6685 69.8489C40.9483 69.2317 40.3824 68.4772 39.8165 67.7228C39.525 67.3456 39.2849 66.9169 38.8734 66.6083C38.4961 67.3284 38.6161 68.0315 38.6847 68.7344C38.7361 69.266 38.839 69.8147 38.8905 70.3462C38.9634 70.805 38.8658 71.2746 38.6162 71.6663C38.5738 71.7561 38.5088 71.8334 38.4276 71.8905C38.3465 71.9476 38.2519 71.9826 38.1531 71.9921C37.8788 71.9767 37.8787 71.7196 37.8273 71.5481C37.6796 71.0877 37.5988 70.6084 37.5873 70.125C37.5873 68.9248 37.5702 67.7246 37.5873 66.5244C37.6045 65.8215 37.5529 65.1527 37.1414 64.5527C37.0969 64.4774 37.0623 64.3967 37.0385 64.3125C36.8842 64.0039 36.9699 63.7638 37.2271 63.5581C37.4843 63.3523 37.6902 63.421 37.9303 63.5753C38.412 63.9343 38.8444 64.3551 39.2164 64.8269C39.988 65.7871 40.7596 66.7301 41.5484 67.673C41.9745 68.2109 42.4704 68.6896 43.023 69.0963C43.9319 69.7135 44.5836 69.6792 45.441 68.9762C46.0583 68.4619 46.5041 67.7914 46.9156 67.1056C47.9617 65.3567 48.6819 63.4707 49.4364 61.5846C49.5564 61.2589 49.6765 60.9503 49.8137 60.6245C49.9208 60.3581 50.0846 60.1181 50.2938 59.9215C50.4824 59.7671 50.7054 59.5443 50.9626 59.6643C51.2198 59.7843 51.117 60.0759 51.1341 60.2816C51.1856 61.6018 51.0312 62.9049 50.9797 64.2251C50.9797 64.4309 50.9626 64.6195 50.9626 64.8252C50.9518 64.874 50.9528 64.9247 50.9657 64.9729C50.9785 65.0212 51.0027 65.0657 51.0363 65.1027C51.0699 65.1396 51.1119 65.1679 51.1587 65.1852C51.2056 65.2026 51.256 65.2086 51.3056 65.2025C51.4256 65.2025 51.5286 65.2196 51.6486 65.2196C53.672 65.2384 55.7126 65.2556 57.7361 65.3053C58.2504 65.3241 58.4562 65.1338 58.5591 64.6709C58.6322 64.3047 58.7296 63.9439 58.8507 63.5907C58.9171 63.3419 59.009 63.1005 59.125 62.8706C59.3136 62.5448 59.6394 62.1676 59.9824 62.3048C60.411 62.4591 60.2567 62.9409 60.1538 63.2992C59.9361 63.8822 59.7131 64.4994 59.4559 65.271C60.2961 65.271 61.0164 65.2881 61.7194 65.271C62.371 65.2367 62.4225 65.1681 62.4397 64.4994C62.4455 63.1856 62.6698 61.8819 63.1033 60.6416C63.4164 59.6621 63.9369 58.7616 64.6294 58.0013C65.0455 57.5219 65.5854 57.1661 66.1899 56.9725ZM59.593 65.974C59.3701 65.9741 59.2159 66.0255 59.1816 66.2826C59.0787 67.0199 59.0101 67.7571 59.2159 68.4773C59.456 69.3517 60.0046 69.6775 60.8791 69.4889C61.2632 69.3895 61.6284 69.2271 61.9596 69.0087C62.0796 68.9401 62.2167 68.8373 62.1824 68.683C61.9252 67.7743 62.2339 66.9342 62.4174 65.974H59.593ZM68.9729 67.3799C68.9385 67.3456 68.7843 67.3285 68.7671 67.3628C68.63 67.5342 68.6644 67.7057 68.8701 67.8772C68.8701 67.7057 69.1444 67.5856 68.9729 67.3799ZM63.7772 66.0598C63.7429 65.974 63.7085 65.9739 63.6571 66.0082C63.6182 66.0227 63.5845 66.0483 63.5601 66.0819C63.5357 66.1154 63.5217 66.1555 63.52 66.1969C63.5885 66.214 63.6571 66.2654 63.7085 66.2483C63.7942 66.2312 63.8114 66.1455 63.7772 66.0598ZM66.8638 58.1212C66.6409 57.864 66.4179 57.8297 66.1092 58.0354C65.5339 58.4117 65.0669 58.932 64.7546 59.5444C63.8115 61.3104 63.6915 63.2306 63.64 65.2366C64.4974 65.3052 64.9947 64.9281 65.4062 64.448C66.5289 63.134 67.2177 61.505 67.3782 59.7843C67.4206 59.4863 67.3965 59.1826 67.3076 58.8951C67.2186 58.6075 67.067 58.3432 66.8638 58.1212Z" fill="black"/>
<path d="M34.18 65.3567C34.8659 65.151 35.2088 65.3739 35.226 66.1283C35.2259 66.4148 35.2088 66.7011 35.1745 66.9855C35.1416 67.1701 35.1649 67.3604 35.2414 67.5316C35.3178 67.7027 35.4439 67.8469 35.6032 67.9456C35.8596 68.1262 36.1057 68.3209 36.3406 68.5287C36.9064 69.0276 37.0436 69.5231 36.8036 70.1232C36.6806 70.4303 36.4631 70.6905 36.1827 70.8661C35.9022 71.0418 35.5731 71.1239 35.243 71.1005C34.6086 71.0491 34.2999 70.7575 34.077 69.9517C34.3342 69.746 34.6086 69.8145 34.883 69.9174C35.0202 69.9688 35.1402 70.0203 35.2774 70.0718C35.4145 70.1232 35.6203 70.1918 35.7404 70.0204C35.8604 69.8489 35.7575 69.6946 35.6717 69.542C35.5517 69.3346 35.3288 69.2488 35.1402 69.1134C34.9687 69.0105 34.8144 68.8904 34.6601 68.7859C32.4652 70.1061 30.356 69.8146 28.2811 68.5801C27.6809 68.22 27.578 68.1858 27.0636 68.7001C26.8236 68.9419 26.6178 69.2145 26.3777 69.4717C26.1852 69.6844 25.9449 69.8484 25.6766 69.9501C25.4083 70.0517 25.1196 70.0881 24.8344 70.0564C24.5772 70.0392 24.3198 70.0204 24.1827 69.7478C23.7197 68.7876 22.9309 68.3057 21.902 68.1531C22.0906 67.4502 22.2107 67.3472 22.7937 67.2958C23.8912 67.1758 24.0284 68.0846 24.3885 68.8048C24.7828 68.7876 25.0058 68.5475 25.2115 68.2561C25.3273 68.061 25.4533 67.8722 25.5888 67.6903C25.7946 67.416 26.0176 67.2616 26.3948 67.4159C27.1322 67.7073 27.7838 67.4844 28.3497 66.9529C28.7098 66.6271 29.0871 66.25 29.6358 66.3014C29.773 66.5586 29.67 66.7472 29.6529 66.9358C29.5672 67.7931 29.8587 68.3589 30.6474 68.7361C31.0959 68.9405 31.5868 69.0345 32.079 69.0104C32.5713 68.9862 33.0506 68.8446 33.4768 68.5973C33.3225 68.0315 33.1339 67.5513 33.1339 67.0369C33.1339 66.1625 33.4941 65.5624 34.18 65.3567Z" fill="black"/>
<path d="M10.5844 62.2191C11.0303 63.2821 10.1214 64.1736 10.2071 65.2366C10.7399 65.3226 11.2797 65.3572 11.8191 65.3396L18.061 65.2366C19.0017 65.2306 19.9416 65.2937 20.8731 65.4253C21.4905 65.5111 22.1078 65.6482 22.4508 66.334C22.0564 66.4883 21.7306 66.3169 21.4048 66.2826C17.7695 65.8711 14.0998 65.9911 10.4473 65.9911C9.86427 65.9911 9.83 66.0426 9.74427 66.6083C9.64139 67.3456 9.60696 68.083 9.86417 68.8031C10.0699 69.386 10.2587 69.506 10.876 69.506C11.0474 69.506 11.2189 69.4888 11.3904 69.4717C12.505 69.3174 12.608 69.2145 12.6594 68.0657C12.6593 67.8064 12.7117 67.5498 12.8136 67.3114C13.0366 66.8656 13.2595 66.8142 13.5853 67.2257C13.8597 67.5514 14.2027 67.5857 14.5628 67.6543C15.1629 67.7572 15.283 67.9457 15.2316 68.5287C15.1116 69.6088 15.1116 69.6089 16.0032 70.089C15.6774 70.8434 15.3515 71.0148 14.6656 70.7919C14.4823 70.7517 14.3201 70.6458 14.2096 70.4942C14.099 70.3426 14.0477 70.1558 14.0654 69.969C14.0654 69.6089 14.254 69.1288 13.8939 68.9402C13.4824 68.7174 13.2081 69.2145 12.8823 69.4203C12.5908 69.6089 12.3507 69.8489 12.0592 70.0375C10.8246 70.7919 9.38417 70.3804 8.7154 69.0944C8.30387 68.2886 8.30372 67.4485 8.4066 66.5912C8.4752 66.4026 8.57294 66.2482 8.49234 66.0082C6.58897 66.1282 4.73705 66.2483 2.88512 66.1112C2.11726 66.037 1.35516 65.911 0.60432 65.7339C0.50146 65.6996 0.398613 65.6482 0.278611 65.6139C-0.0300506 65.5453 -0.0129027 65.3052 0.021393 65.0652C0.0557219 64.8252 0.261446 64.8595 0.415761 64.8766C1.41034 64.9624 2.40498 65.0653 3.39956 65.1338C4.95998 65.2539 6.53755 65.4081 8.09798 65.3224C8.90392 65.2709 8.92111 65.2539 9.16118 64.4823C9.28121 64.0708 9.36695 63.6593 9.50414 63.2478C9.67561 62.7506 9.93282 62.3048 10.5844 62.2191Z" fill="black"/>
<path fill-rule="evenodd" clip-rule="evenodd" d="M54.5173 66.5741C55.529 66.5741 55.6834 66.6942 55.8721 67.6886C55.892 67.8019 55.9035 67.9166 55.9064 68.0315C55.975 69.0945 56.0092 69.1289 57.0381 68.9746C57.1753 68.9574 57.3125 68.923 57.4668 68.9059C57.6211 68.8888 57.7583 68.923 57.8097 69.0944C57.8269 69.1638 57.823 69.2369 57.7985 69.3041C57.7741 69.3712 57.7303 69.4295 57.6726 69.4717C57.5053 69.6254 57.2966 69.7267 57.0724 69.7632C56.3694 69.9347 55.7006 69.7975 55.0661 69.5574C54.8883 69.4784 54.6964 69.4361 54.5019 69.4332C54.3074 69.4302 54.1144 69.4667 53.9344 69.5403C53.4239 69.7374 52.8616 69.7555 52.3395 69.5917C51.6708 69.386 51.5679 69.2317 51.6879 68.5459C51.8422 67.6201 52.3396 67.0028 53.2826 66.7456C53.6836 66.6286 54.0996 66.5709 54.5173 66.5741ZM54.3972 67.3628C53.4542 67.3285 53.1969 67.5857 53.0597 68.7859C53.9514 68.7344 54.0886 68.563 54.3972 67.3628Z" fill="black"/>
<path fill-rule="evenodd" clip-rule="evenodd" d="M17.3922 67.1741C18.2324 66.5568 19.1756 66.4712 20.1701 66.7284C20.2811 66.7473 20.3824 66.8035 20.4572 66.8876C20.532 66.9717 20.576 67.0789 20.5818 67.1913C20.839 68.7516 21.2333 69.0773 22.8281 69.1288C22.8624 69.1116 22.8795 69.1459 22.9138 69.1802C22.7766 69.5402 22.468 69.6431 22.1251 69.7289C21.4494 69.8672 20.7484 69.8137 20.1015 69.5745C19.883 69.4785 19.6475 69.4276 19.4089 69.4246C19.1702 69.4217 18.9334 69.4668 18.7126 69.5574C18.1467 69.7632 17.5808 69.6603 17.0492 69.4203C16.6548 69.2488 16.5004 68.9762 16.5862 68.5287C16.6719 67.9908 16.9603 67.506 17.3922 67.1741ZM19.3128 67.3799C18.4897 67.3113 18.1809 67.5342 18.1295 68.2715C18.1123 68.4601 18.061 68.7001 18.2839 68.7859C18.3939 68.8162 18.5109 68.809 18.6165 68.7656C18.722 68.7221 18.8102 68.6448 18.867 68.5457C19.1241 68.1857 19.2047 67.7742 19.3128 67.3799Z" fill="black"/>
<path d="M30.6988 60.4188C31.2304 60.3845 31.5907 60.7959 31.6078 61.4989C31.625 62.0819 31.4362 62.2362 30.7332 62.2534C30.0644 62.2705 29.8244 62.099 29.8073 61.6704C29.773 60.9846 30.1673 60.4531 30.6988 60.4188Z" fill="black"/>
<path d="M0.467171 50.9543C0.672926 50.9714 0.861595 50.9543 1.06735 50.9543H79.2446C79.9819 50.9543 79.9819 50.9543 79.8448 51.8459H0.141462C-0.0300171 51.743 0.02146 51.5543 0.00431215 51.4C-0.0299525 51.0571 0.141421 50.9371 0.467171 50.9543Z" fill="black"/>
<path d="M21.1819 8.8614C23.1813 8.25083 25.265 7.96146 27.3552 8.00411C28.1954 8.00411 28.1954 8.02137 28.2126 8.87865V16.1656C28.2126 16.9371 28.2125 16.937 27.4066 17.1428C26.7389 17.292 26.1012 17.5528 25.5203 17.9143C24.1142 18.8231 23.3939 20.1091 23.3939 21.7894V43.5472C23.3939 44.7132 23.514 44.6104 22.348 44.6276H14.0312C13.8255 44.6276 13.6368 44.6104 13.4311 44.6276C13.1053 44.6447 12.9681 44.4732 12.968 44.1646V43.4788C12.9509 39.4667 12.951 35.4716 12.951 31.4595V20.1433C12.951 14.5881 15.9176 10.5245 21.1819 8.8614Z" fill="black"/>
<path d="M52.4887 8.03844C55.3695 8.02129 58.199 8.41572 60.8054 9.73593C64.8695 11.7934 66.8415 15.2053 66.9616 19.6632C67.0868 23.5724 67.0011 27.516 67.0011 31.4595V43.8044C66.984 44.6103 66.9839 44.6276 66.1951 44.6276H59.8452C58.9364 44.6276 58.0104 44.6104 57.1016 44.6276C56.69 44.6447 56.5358 44.4732 56.57 44.0789C56.5872 43.8731 56.57 43.6845 56.57 43.4788C56.57 36.3976 56.5185 29.3163 56.5871 22.2351C56.6214 19.3547 54.8209 17.7087 52.7118 17.2114C51.7343 16.9714 51.7343 16.9542 51.7343 15.9426V8.82708C51.7343 8.07274 51.7514 8.03844 52.4887 8.03844Z" fill="black"/>
<path d="M34.3686 21.172H45.5147C45.789 21.1549 45.9434 21.2749 45.9434 21.5663V43.4958C45.9434 44.6446 46.012 44.5418 44.8631 44.5589H34.8316C33.9913 44.5589 33.9913 44.5588 33.9913 43.7187V21.5149C33.9913 21.2578 34.1285 21.1549 34.3686 21.172Z" fill="black"/>
<path d="M49.0816 8.02136C49.1774 8.22423 49.213 8.45035 49.1844 8.67286V16.3027C49.1844 17.0914 49.1672 17.0914 48.3784 17.0914H31.3163C30.5446 17.0914 30.5275 17.0913 30.5275 16.3712V8.56989C30.5275 8.39847 30.5447 8.24419 30.5619 8.02136H49.0816Z" fill="black"/>
</svg>
