<svg width="80" height="80" viewBox="0 0 80 80" fill="none" xmlns="http://www.w3.org/2000/svg">
<path d="M13.497 37.1394L17.5828 30.3999H24.4908L16.6258 42.0121V50.3878H10.3681L10.3559 42.0121L2.47858 30.3999H9.42331L13.497 37.1394Z" fill="black"/>
<path d="M42.6626 35.3212H32.1718V38.1697H41.3252V42.6788H32.1718V45.5273H42.9571V50.3878H25.9142L25.9019 30.3999H42.6626V35.3212Z" fill="black"/>
<path d="M64.0491 35.3212H57.6687V50.3878H51.4234V35.3333H45.043V30.3999H64.0491V35.3212Z" fill="black"/>
<path d="M72.5767 50.3878H66.3068V30.3999H72.5645L72.5767 50.3878Z" fill="black"/>
<path fill-rule="evenodd" clip-rule="evenodd" d="M74.8099 31.0788C74.9939 31.0788 75.1412 31.1152 75.2393 31.1879C75.3252 31.2606 75.3742 31.3697 75.3742 31.5273C75.3742 31.6727 75.3251 31.7697 75.2515 31.8424C75.1656 31.9151 75.0675 31.9515 74.9448 31.9636L75.3988 32.6545L75.1288 32.6666L74.6872 31.9999H74.4172V32.6788H74.1596L74.1718 31.103L74.8099 31.0788ZM74.8834 31.2727C74.8344 31.2726 74.7975 31.2605 74.7607 31.2727H74.4295V31.7697L74.6872 31.7818C74.7485 31.7818 74.7976 31.7818 74.8466 31.7697C74.8957 31.7697 74.9449 31.7576 74.9817 31.7334C75.0185 31.7091 75.0553 31.6848 75.0798 31.6485C75.1044 31.6121 75.1166 31.5636 75.1166 31.503C75.1166 31.4545 75.1043 31.406 75.0798 31.3818C75.0553 31.3454 75.0307 31.3333 74.9939 31.3091C74.9571 31.297 74.9202 31.2848 74.8834 31.2727Z" fill="black"/>
<path fill-rule="evenodd" clip-rule="evenodd" d="M74.7239 30.5212C74.9203 30.5212 75.0921 30.5455 75.2639 30.6182C75.4356 30.6788 75.5706 30.7757 75.7055 30.8969C75.8282 31.0182 75.9265 31.1515 76.0001 31.3212C76.0737 31.4788 76.1104 31.6606 76.1104 31.8546C76.1104 32.0485 76.0737 32.2303 76.0001 32.4C75.9265 32.5697 75.8283 32.7151 75.6933 32.8363C75.5706 32.9575 75.4233 33.0546 75.2515 33.1273C75.0798 33.2 74.908 33.2363 74.7117 33.2363C74.5277 33.2363 74.3436 33.2121 74.1718 33.1394C74 33.0788 73.8528 32.9818 73.7301 32.8606C73.6074 32.7394 73.5092 32.5939 73.4356 32.4364C73.362 32.2788 73.3252 32.0969 73.3252 31.903C73.3252 31.6969 73.362 31.5272 73.4356 31.3575C73.5092 31.2 73.6074 31.0545 73.7424 30.9212C73.8773 30.8 74.0246 30.703 74.1841 30.6303C74.3559 30.5575 74.5277 30.5212 74.7239 30.5212ZM75.1534 30.8C75.0184 30.7515 74.8712 30.7151 74.7117 30.7272C74.5522 30.7272 74.405 30.7637 74.2577 30.8243C74.1227 30.8849 74 30.9697 73.8896 31.0667C73.7915 31.1758 73.7056 31.297 73.6442 31.4303C73.5829 31.5758 73.5583 31.7212 73.5583 31.8787C73.5706 32.0484 73.5951 32.206 73.6564 32.3515C73.7178 32.4848 73.7915 32.606 73.8896 32.7151C73.9878 32.8121 74.1105 32.8969 74.2455 32.9575C74.3804 33.0181 74.5399 33.0423 74.6994 33.0302C74.8589 33.0302 75.0062 32.9939 75.1412 32.9333C75.2884 32.8727 75.3988 32.7879 75.5093 32.6788C75.6074 32.5697 75.6933 32.4484 75.7547 32.303C75.816 32.1575 75.8406 32.0121 75.8406 31.8424C75.8406 31.6848 75.816 31.5272 75.7547 31.3939C75.6933 31.2605 75.6197 31.1393 75.5215 31.0302C75.4233 30.9333 75.3006 30.8485 75.1534 30.8Z" fill="black"/>
</svg>
